<svg id="Layer_1" data-name="Layer 1" xmlns="http://www.w3.org/2000/svg" viewBox="0 0 142.34 78.15"><defs><style>.cls-1,.cls-2,.cls-3{stroke:#000;}.cls-1{stroke-linecap:round;stroke-linejoin:round;stroke-width:0.9px;}.cls-2,.cls-3{fill:none;stroke-miterlimit:10;}.cls-2{stroke-width:0.92px;}.cls-3{stroke-width:0.7px;}</style></defs><title>ABD-Logo-Offical</title><path d="M25.23,62.25c0,.21-.18.32-.53.32a5,5,0,0,1-.64,0l-4.49-.15-4.49.15a3.64,3.64,0,0,1-.53,0c-.47,0-.71-.13-.71-.39s.32-.43,1-.43q3.11,0,3.11-.65a2,2,0,0,0-.07-.29l-.29-1-.18-.52q-.32-1.15-1.55-5.08H8.25Q6.14,60.16,6.14,61a.57.57,0,0,0,.42.63q.11,0,1.77.15,1,0,1,.37t-.92.37q-1.63,0-3.78-.15-.53,0-1.1,0a4.83,4.83,0,0,0-1.1.12,2.25,2.25,0,0,1-.46.06c-.33,0-.49-.11-.49-.33s.37-.35,1.11-.37a3.31,3.31,0,0,0,1.61-.35A2.14,2.14,0,0,0,5,60.3q4.55-13.68,7.4-22a4.41,4.41,0,0,1,.33-1l.15-.68q.11-.41.28-.41c.07,0,.13.07.18.22q.46,1.44,2.08,6,1.27,3.59,6.33,18a1.77,1.77,0,0,0,.73,1.07,5,5,0,0,0,1.82.27Q25.23,61.93,25.23,62.25Zm-9.62-8.87-1.9-5.51L12,42.73q-1.48,4.1-3.55,10.65Z" transform="translate(-1.26 -0.75)"/><path d="M51.86,62.25q0,.31-.74.31H42.31q-.74,0-.74-.33t1-.37q1.8,0,2.19-.41A7.87,7.87,0,0,0,45,59V39.74s-.14.46-.43,1.3q-1.42,4.48-4.12,13.48l-1.64,5.9q-.5,1.74-.71,1.74t-.53-.89q-1-3.37-5.78-16.83l-1.4-4q0,.7,0,1.93v12q0,6.78.11,6.86.25.48,1.7.48c.78,0,1.17.12,1.17.37s-.25.41-.74.41a4.49,4.49,0,0,1-.85-.07,6.13,6.13,0,0,0-.88-.07l-4.07.15c-.42,0-.64-.11-.64-.33s.67-.38,2-.41q.85,0,1-.3a7,7,0,0,0,.14-1.93V41.82q0-3.08-.07-3.34a1,1,0,0,0-.6-.71,8.12,8.12,0,0,0-2-.3c-.38,0-.57-.13-.57-.33s.35-.41,1-.41h2.47q2.11,0,3,0,.18.48,2.05,5.83.81,2.23,4.53,13,.68-2.42,1.4-4.76l3.78-12.25q.35-1.06.63-1.76l5.21,0a4,4,0,0,1,1.32.11.37.37,0,0,1,.17.33q0,.37-.6.37a7.8,7.8,0,0,0-1.34.07,1.74,1.74,0,0,0-1.17.59,23.22,23.22,0,0,0-.18,4.35V59.85q0,1.49.28,1.75a4.75,4.75,0,0,0,2.3.33h.21Q51.86,61.94,51.86,62.25Z" transform="translate(-1.26 -0.75)"/><path d="M72.51,55.75a6,6,0,0,1-3.29,5.6,11.24,11.24,0,0,1-4.56,1.11q-.81,0-4.81,0H55.53c-.4,0-.6-.1-.6-.31s.37-.32,1.1-.32,1.35-.09,1.5-.28a3.47,3.47,0,0,0,.23-1.69v-20A6.51,6.51,0,0,0,57.62,38q-.25-.45-1.8-.48c-.64,0-1-.13-1-.39s.29-.35.88-.35h.42a2.59,2.59,0,0,0,.71.11h6.89a10.27,10.27,0,0,1,5.69,1.33,5,5,0,0,1,2.19,4.41,5.29,5.29,0,0,1-1.8,4.13,9.1,9.1,0,0,1-5.06,2V49a10.44,10.44,0,0,1,5,1.41A6,6,0,0,1,72.51,55.75ZM67.77,43q0-3.56-1.56-4.74a5.32,5.32,0,0,0-3.08-.63q-.6,0-1.87.11V48.45h.32l1.94-.07a3.94,3.94,0,0,0,3.13-1.5A6.2,6.2,0,0,0,67.77,43Zm1,12.38q0-4.67-3.61-5.78a15.24,15.24,0,0,0-3.92-.33v11q0,1.08.21,1.22a4.35,4.35,0,0,0,2,.26,4.94,4.94,0,0,0,3.89-1.63A7,7,0,0,0,68.79,55.34Z" transform="translate(-1.26 -0.75)"/><path d="M95.81,56.52q0,.15-.07,1.82t-.07,3.19v1.22q-3.47-.22-13.72-.22H77.53c-.45,0-.67-.1-.67-.3a.22.22,0,0,1,.21-.23l1.34-.1q.92-.07,1.11-.41a4.51,4.51,0,0,0,.2-1.75V38.85c0-.72-.1-1.15-.3-1.28a4.91,4.91,0,0,0-1.93-.2c-.38,0-.56-.11-.56-.32s.26-.32.78-.32h15a11.83,11.83,0,0,0,1.95-.15q.07,1.59.32,4.41l.14,1.59a2.69,2.69,0,0,1,0,.48c0,.25-.11.37-.32.37s-.45-.31-.56-.93q-.67-3.36-2.19-4.25-1.13-.67-5.94-.67h-2.9v10.9h.85q4,0,4.83-.63t1.18-3.67c0-.52.18-.78.39-.78s.39.22.39.67,0,1.1-.07,2-.07,1.52-.07,2q0,4,.11,5.45,0,.37,0,.63c0,.32-.13.48-.39.48s-.28-.1-.33-.32-.16-.89-.3-2.06q-.28-2.19-1.72-2.71a13.94,13.94,0,0,0-3.31-.22H83.22V61.68a65.15,65.15,0,0,0,9.12-.33q2.33-.55,2.65-4.69.07-.91.46-.92C95.69,55.75,95.81,56,95.81,56.52Z" transform="translate(-1.26 -0.75)"/><path d="M118.93,61.26c0,1-.44,1.67-2.09,1.67a4.87,4.87,0,0,1-4.31-2.41,5.81,5.81,0,0,1-.87-2q-.19-1-.58-4.89a4.6,4.6,0,0,0-1.45-3.35,6.83,6.83,0,0,0-4-1.06V60.9q0,.74,1.13.93c.21,0,.75,0,1.63.07.31,0,.46.1.46.3s-.2.33-.6.33H99.91c-.52,0-.78-.11-.78-.33s.34-.27,1-.3q1.66,0,1.8-.44A3.73,3.73,0,0,0,102.1,60V39.55a3.06,3.06,0,0,0-.3-1.78,3.34,3.34,0,0,0-1.82-.33q-.88,0-.88-.33c0-.25.19-.37.57-.37l.32,0,4.7.11q.71,0,2,0t2-.1a8.14,8.14,0,0,1,5.22,1.54,5.06,5.06,0,0,1,1.93,4.17,5.38,5.38,0,0,1-2,4.28,9.32,9.32,0,0,1-5.37,2c-.21,0-.33.06-.35.11s.12.15.35.15q3.71.67,5.11,2.73t1.86,7.45q.28,3,2,3c.35,0,.45-.1.53-.22s.12-.17.12-.56m-6-18.6q0-5.3-4.38-5.3a2.71,2.71,0,0,0-1.59.33A1.44,1.44,0,0,0,105.6,39v9.41q3.4,0,4.9-1.3A5.53,5.53,0,0,0,112,42.81Z" transform="translate(-1.26 -0.75)"/><path d="M1.26,64.29H7a6.17,6.17,0,0,1,2.14.32,3.78,3.78,0,0,1,1.38.84,3.08,3.08,0,0,1,.75,1.19A4.14,4.14,0,0,1,11.48,68a3,3,0,0,1-.2,1.1,2.85,2.85,0,0,1-.57.92,3.26,3.26,0,0,1-.88.67A3.29,3.29,0,0,1,8.7,71l0,0a2.28,2.28,0,0,1,.66.12,3.62,3.62,0,0,1,1.09.53,3.8,3.8,0,0,1,1,1.08A3.18,3.18,0,0,1,12,74.57a3.9,3.9,0,0,1-.36,1.72,3.54,3.54,0,0,1-1,1.25A4.49,4.49,0,0,1,9,78.31a7.51,7.51,0,0,1-2,.26H1.26ZM7,70.77A4,4,0,0,0,9.7,70a2.73,2.73,0,0,0,.9-2.13,2.62,2.62,0,0,0-.3-1.31,2.47,2.47,0,0,0-.8-.86,3.34,3.34,0,0,0-1.15-.47A6.47,6.47,0,0,0,7,65H2.14v5.72Zm0,7A5,5,0,0,0,10,77a2.83,2.83,0,0,0,1.09-2.43,2.74,2.74,0,0,0-.38-1.51,2.82,2.82,0,0,0-1-.93,4.05,4.05,0,0,0-1.32-.47A8.12,8.12,0,0,0,7,71.53H2.14v6.28Z" transform="translate(-1.26 -0.75)"/><path d="M25.54,64.29h1l-5.74,8.3v6H19.9v-6l-5.7-8.3h1l5.16,7.56Z" transform="translate(-1.26 -0.75)"/><path d="M38.4,64.29h4.68a7.47,7.47,0,0,1,3.19.6,5.38,5.38,0,0,1,2,1.6,6.1,6.1,0,0,1,1.07,2.28,11.2,11.2,0,0,1,.31,2.64,9.88,9.88,0,0,1-.39,2.83,6.15,6.15,0,0,1-1.21,2.27A5.69,5.69,0,0,1,46,78a7.34,7.34,0,0,1-3,.55H38.4Zm4.72,13.52a6.81,6.81,0,0,0,2-.31,4.87,4.87,0,0,0,1.83-1,5.27,5.27,0,0,0,1.33-2,8.12,8.12,0,0,0,.51-3.09,9.4,9.4,0,0,0-.29-2.5,6.15,6.15,0,0,0-.76-1.75A4,4,0,0,0,46.67,66a5.32,5.32,0,0,0-1.26-.63,6.11,6.11,0,0,0-1.3-.29A11,11,0,0,0,42.94,65H39.28V77.81Z" transform="translate(-1.26 -0.75)"/><path d="M54.48,64.29h9.6V65H55.36v5.72h8.2v.76h-8.2v6.28h8.82v.76h-9.7Z" transform="translate(-1.26 -0.75)"/><path d="M77.74,68.37a3.85,3.85,0,0,0-.39-1.6,3.36,3.36,0,0,0-.95-1.14A4.14,4.14,0,0,0,75,64.94a6.76,6.76,0,0,0-1.81-.23,6.55,6.55,0,0,0-1.29.14,4.12,4.12,0,0,0-1.28.49,2.9,2.9,0,0,0-1,.94,2.66,2.66,0,0,0-.38,1.47,2.22,2.22,0,0,0,.42,1.4,3.06,3.06,0,0,0,1.1.87,7.23,7.23,0,0,0,1.56.53l1.78.38q.92.18,1.79.43a6.17,6.17,0,0,1,1.56.68,3.38,3.38,0,0,1,1.11,1.12A3.28,3.28,0,0,1,79,74.89a3.45,3.45,0,0,1-.48,1.88A4.05,4.05,0,0,1,77.29,78a5,5,0,0,1-1.62.69,7.46,7.46,0,0,1-1.71.21,9.85,9.85,0,0,1-2.36-.27,5.27,5.27,0,0,1-1.92-.88,4.25,4.25,0,0,1-1.29-1.57,5.12,5.12,0,0,1-.45-2.34h.88a4,4,0,0,0,.34,2,3.6,3.6,0,0,0,1.11,1.33,4.61,4.61,0,0,0,1.67.75,8.65,8.65,0,0,0,2,.23A6.44,6.44,0,0,0,75.33,78a4.23,4.23,0,0,0,1.34-.54,3.32,3.32,0,0,0,1-1,2.77,2.77,0,0,0,.41-1.56,2.42,2.42,0,0,0-.42-1.47,3.08,3.08,0,0,0-1.11-.92A7.15,7.15,0,0,0,75,71.94q-.87-.21-1.79-.39t-1.78-.42a6.13,6.13,0,0,1-1.56-.65,3.34,3.34,0,0,1-1.1-1.06,3,3,0,0,1-.42-1.67A3.39,3.39,0,0,1,68.79,66a3.51,3.51,0,0,1,1.12-1.18,5,5,0,0,1,1.55-.66,7.16,7.16,0,0,1,1.7-.21,8.34,8.34,0,0,1,2.09.25,5,5,0,0,1,1.7.78,3.9,3.9,0,0,1,1.17,1.37,4.84,4.84,0,0,1,.5,2Z" transform="translate(-1.26 -0.75)"/><path d="M83.76,64.29h.88V78.57h-.88Z" transform="translate(-1.26 -0.75)"/><path d="M89.38,71.51a9.18,9.18,0,0,1,.45-2.89,7.33,7.33,0,0,1,1.31-2.41,6.25,6.25,0,0,1,2.11-1.65,6.46,6.46,0,0,1,2.87-.61,6.84,6.84,0,0,1,2.1.32,5.59,5.59,0,0,1,3.12,2.44,5.45,5.45,0,0,1,.72,2h-.84a5.49,5.49,0,0,0-1.8-2.94,5,5,0,0,0-3.28-1.06,5.52,5.52,0,0,0-2.54.56,5.45,5.45,0,0,0-1.84,1.5,6.62,6.62,0,0,0-1.12,2.17,8.63,8.63,0,0,0-.38,2.57,8.73,8.73,0,0,0,.37,2.57,6.18,6.18,0,0,0,1.1,2.11,5.26,5.26,0,0,0,1.83,1.43,5.88,5.88,0,0,0,2.58.53,6,6,0,0,0,2.3-.42,4.87,4.87,0,0,0,1.73-1.18,4.94,4.94,0,0,0,1.07-1.83,6.51,6.51,0,0,0,.3-2.39H96.28v-.76h6v7h-.76v-3h0a4.38,4.38,0,0,1-.78,1.41A4.81,4.81,0,0,1,99.49,78a6.21,6.21,0,0,1-1.58.67,7.21,7.21,0,0,1-4.68-.34,6.15,6.15,0,0,1-2.11-1.58,6.76,6.76,0,0,1-1.3-2.35A9.28,9.28,0,0,1,89.38,71.51Z" transform="translate(-1.26 -0.75)"/><path d="M107.46,64.29h1.1l9,13.1h0V64.29h.88V78.57h-1l-9.08-13.2h0v13.2h-.88Z" transform="translate(-1.26 -0.75)"/><line class="cls-1" x1="117.22" y1="60.67" x2="117.22" y2="16.57"/><path class="cls-2" d="M135.42,1.3s-14.21,2-16.63,16.37C118.79,17.67,133.15,15.6,135.42,1.3Z" transform="translate(-1.26 -0.75)"/><path class="cls-2" d="M143,13.63S123,16.22,119.28,36.38C119.28,36.38,139.56,33.76,143,13.63Z" transform="translate(-1.26 -0.75)"/><path class="cls-3" d="M104.24,15.34s2.6,10.67,13.7,11.46C117.94,26.8,115.31,16,104.24,15.34Z" transform="translate(-1.26 -0.75)"/></svg>