<svg xmlns="http://www.w3.org/2000/svg" viewBox="0 0 143.24 84.36"><defs><style>.cls-1,.cls-2,.cls-3{fill:none;stroke:#000;}.cls-1{stroke-linecap:round;stroke-linejoin:round;stroke-width:0.9px;}.cls-2,.cls-3{stroke-miterlimit:10;}.cls-2{stroke-width:0.92px;}.cls-3{stroke-width:0.7px;}.cls-4{font-size:20px;font-family:HelveticaNeue-Thin, Helvetica Neue;letter-spacing:0.31em;}</style></defs><title>ABD-Logo-Offical</title><g id="Layer_1" data-name="Layer 1"><path d="M24,61.5c0,.21-.18.32-.53.32H22.8l-4.49-.15-4.49.15h-.53c-.47,0-.71-.13-.71-.39s.32-.43,1-.43c2.07,0,3.11-.22,3.11-.65a2.46,2.46,0,0,0-.07-.29l-.29-1-.18-.52q-.31-1.15-1.55-5.08H7a42.89,42.89,0,0,0-2.11,6.79.56.56,0,0,0,.42.63L7.07,61c.67,0,1,.12,1,.37s-.31.37-.92.37q-1.64,0-3.78-.15H2.27a5.08,5.08,0,0,0-1.1.12,1.82,1.82,0,0,1-.46.06c-.33,0-.49-.11-.49-.33s.37-.35,1.11-.37a3.32,3.32,0,0,0,1.61-.35,2.15,2.15,0,0,0,.8-1.2q4.55-13.68,7.4-22a4.35,4.35,0,0,1,.33-1l.15-.68c.07-.27.17-.41.28-.41s.13.07.18.22q.47,1.44,2.08,6,1.27,3.59,6.33,18a1.76,1.76,0,0,0,.73,1.07A5.09,5.09,0,0,0,23,61Q24,61.19,24,61.5Zm-9.62-8.87-1.9-5.51L10.74,42q-1.49,4.1-3.55,10.65Z" transform="translate(0.94 -0.01)"/><path d="M50.6,61.5c0,.21-.25.31-.74.31H41.05c-.49,0-.74-.11-.74-.33s.33-.34,1-.37a3.55,3.55,0,0,0,2.19-.41,7.8,7.8,0,0,0,.24-2.45V39s-.14.46-.43,1.3q-1.43,4.49-4.12,13.48l-1.64,5.9c-.33,1.16-.57,1.74-.71,1.74s-.32-.3-.53-.89q-1-3.37-5.78-16.83l-1.4-4V53.62q0,6.78.11,6.86c.17.32.73.48,1.7.48.78,0,1.17.12,1.17.37s-.25.41-.74.41a4.88,4.88,0,0,1-.85-.07,6.52,6.52,0,0,0-.88-.07l-4.07.15c-.42,0-.64-.11-.64-.33s.67-.38,2-.41c.57,0,.9-.1,1-.3a6.93,6.93,0,0,0,.14-1.93V41.07c0-2,0-3.17-.07-3.34a1,1,0,0,0-.6-.71,8.41,8.41,0,0,0-2-.3c-.38,0-.57-.13-.57-.33s.35-.41,1-.41H31.3q.18.48,2.05,5.83.81,2.23,4.53,13,.67-2.41,1.4-4.76L43.06,37.8c.23-.71.44-1.29.63-1.76H48.9a3.92,3.92,0,0,1,1.32.11.37.37,0,0,1,.17.33c0,.25-.2.37-.6.37a7.48,7.48,0,0,0-1.34.07,1.77,1.77,0,0,0-1.17.59,22.6,22.6,0,0,0-.18,4.35V59.1c0,1,.09,1.58.28,1.75a4.77,4.77,0,0,0,2.3.33h.21C50.36,61.19,50.6,61.29,50.6,61.5Z" transform="translate(0.94 -0.01)"/><path d="M71.25,55A6,6,0,0,1,68,60.6a11.25,11.25,0,0,1-4.56,1.11H54.27c-.4,0-.6-.1-.6-.31s.37-.32,1.1-.32a2.53,2.53,0,0,0,1.5-.28,3.38,3.38,0,0,0,.23-1.69v-20a6.47,6.47,0,0,0-.14-1.86q-.26-.45-1.8-.48c-.64,0-1-.13-1-.39s.29-.35.88-.35h.42a2.45,2.45,0,0,0,.71.11h6.89a10.28,10.28,0,0,1,5.69,1.33,5,5,0,0,1,2.19,4.41A5.26,5.26,0,0,1,68.54,46a9.11,9.11,0,0,1-5.06,2v.24a10.46,10.46,0,0,1,5,1.41A6,6,0,0,1,71.25,55ZM66.51,42.25q0-3.55-1.56-4.74a5.24,5.24,0,0,0-3.08-.63c-.4,0-1,0-1.87.11V47.7h.32l1.94-.07a3.94,3.94,0,0,0,3.13-1.5A6.18,6.18,0,0,0,66.51,42.25Zm1,12.38q0-4.66-3.61-5.78A15.18,15.18,0,0,0,60,48.52v11c0,.72.07,1.13.21,1.22a4.4,4.4,0,0,0,2,.26,4.91,4.91,0,0,0,3.89-1.63,7,7,0,0,0,1.45-4.78Z" transform="translate(0.94 -0.01)"/><path d="M94.55,55.77c0,.1,0,.71-.07,1.82s-.07,2.18-.07,3.19V62q-3.47-.22-13.72-.22H76.27c-.45,0-.67-.1-.67-.3a.22.22,0,0,1,.21-.23h0l1.34-.1c.61,0,1-.18,1.11-.41a4.5,4.5,0,0,0,.2-1.75V38.1c0-.72-.1-1.15-.3-1.28a5,5,0,0,0-1.93-.2c-.38,0-.56-.11-.56-.32s.26-.32.78-.32h15a12.71,12.71,0,0,0,2-.15c0,1.06.15,2.53.32,4.41l.14,1.59a3.84,3.84,0,0,1,0,.48c0,.25-.11.37-.32.37s-.45-.31-.56-.93q-.67-3.36-2.19-4.25-1.12-.68-5.94-.67H82v10.9h.85q4,0,4.83-.63c.55-.42,1-1.64,1.18-3.67,0-.52.18-.78.39-.78s.39.22.39.67,0,1.1-.07,2-.07,1.52-.07,2c0,2.67,0,4.48.11,5.45v.63q0,.48-.39.48c-.26,0-.28-.1-.33-.32s-.16-.89-.3-2.06c-.19-1.46-.76-2.36-1.72-2.71a14.12,14.12,0,0,0-3.31-.22H82V60.93a66.16,66.16,0,0,0,9.12-.33c1.55-.37,2.44-1.93,2.65-4.69,0-.61.2-.91.46-.92S94.55,55.25,94.55,55.77Z" transform="translate(0.94 -0.01)"/><path d="M117.67,60.51c0,1-.44,1.67-2.09,1.67a4.85,4.85,0,0,1-4.31-2.41,5.86,5.86,0,0,1-.87-2c-.13-.67-.32-2.3-.58-4.89a4.62,4.62,0,0,0-1.45-3.35,6.81,6.81,0,0,0-4-1.06V60.15c0,.49.38.8,1.13.93.21,0,.75,0,1.63.07.31,0,.46.1.46.3s-.2.33-.6.33H98.65q-.78,0-.78-.33c0-.22.34-.27,1-.3,1.11,0,1.71-.15,1.8-.44a3.81,3.81,0,0,0,.17-1.46V38.8a3,3,0,0,0-.3-1.78,3.35,3.35,0,0,0-1.82-.33c-.59,0-.88-.11-.88-.33S98,36,98.41,36h.32l4.7.11h2a14.66,14.66,0,0,0,2-.1,8.12,8.12,0,0,1,5.22,1.54,5.07,5.07,0,0,1,1.93,4.17,5.37,5.37,0,0,1-2,4.28,9.37,9.37,0,0,1-5.37,2c-.21,0-.33.06-.35.11s.12.15.35.15c2.47.45,4.18,1.36,5.11,2.73s1.55,3.86,1.86,7.45c.19,2,.85,3,2,3,.35,0,.45-.1.53-.22s.12-.17.12-.56m-6-18.6q0-5.29-4.38-5.3a2.67,2.67,0,0,0-1.59.33,1.43,1.43,0,0,0-.52,1.17v9.41q3.41,0,4.9-1.3a5.55,5.55,0,0,0,1.5-4.3Z" transform="translate(0.94 -0.01)"/><line class="cls-1" x1="118.16" y1="60.66" x2="118.16" y2="16.56"/><path class="cls-2" d="M134.16.55s-14.21,2-16.63,16.37C117.53,16.92,131.89,14.85,134.16.55Z" transform="translate(0.94 -0.01)"/><path class="cls-2" d="M141.74,12.88s-20,2.59-23.72,22.75C118,35.63,138.3,33,141.74,12.88Z" transform="translate(0.94 -0.01)"/><path class="cls-3" d="M103,14.59s2.6,10.67,13.7,11.46C116.68,26.05,114.05,15.25,103,14.59Z" transform="translate(0.94 -0.01)"/></g><g id="Layer_3" data-name="Layer 3"><text class="cls-4" transform="translate(0 78.04)">develops</text></g></svg>