<?xml version="1.0" encoding="utf-8"?>
<!-- Generator: Adobe Illustrator 22.0.0, SVG Export Plug-In . SVG Version: 6.00 Build 0)  -->
<svg version="1.1" xmlns="http://www.w3.org/2000/svg" xmlns:xlink="http://www.w3.org/1999/xlink" x="0px" y="0px"
	 viewBox="0 0 142.3 82" style="enable-background:new 0 0 142.3 82;" xml:space="preserve">
<style type="text/css">
	.st0{fill:none;stroke:#000000;stroke-width:0.9;stroke-linecap:round;stroke-linejoin:round;}
	.st1{fill:none;stroke:#000000;stroke-width:0.92;stroke-miterlimit:10;}
	.st2{fill:none;stroke:#000000;stroke-width:0.7;stroke-miterlimit:10;}
	.st3{display:none;}
	.st4{display:inline;}
	.st5{font-family:'HelveticaNeue-Thin';}
	.st6{font-size:20px;}
	.st7{letter-spacing:6;}
</style>
<g id="Layer_1">
	<title>ABD-Logo-Offical</title>
	<path d="M24,61.5c0,0.2-0.2,0.3-0.5,0.3c-0.2,0-0.4,0-0.6,0l-4.5-0.2l-4.5,0.2c-0.2,0-0.4,0-0.5,0c-0.5,0-0.7-0.1-0.7-0.4
		s0.3-0.4,1-0.4c2.1,0,3.1-0.2,3.1-0.7c0-0.1,0-0.2-0.1-0.3l-0.3-1l-0.2-0.5c-0.2-0.8-0.7-2.5-1.6-5.1H7c-1.4,4-2.1,6.2-2.1,6.8
		c0,0.3,0.1,0.6,0.4,0.6c0.1,0,0.7,0.1,1.8,0.2c0.7,0,1,0.1,1,0.4s-0.3,0.4-0.9,0.4c-1.1,0-2.3,0-3.8-0.2c-0.4,0-0.7,0-1.1,0
		c-0.4,0-0.7,0-1.1,0.1c-0.2,0-0.3,0.1-0.5,0.1c-0.3,0-0.5-0.1-0.5-0.3s0.4-0.3,1.1-0.4c0.6,0,1.1-0.1,1.6-0.3
		c0.4-0.3,0.7-0.7,0.8-1.2c3-9.1,5.5-16.5,7.4-22c0.1-0.3,0.2-0.7,0.3-1l0.1-0.7c0.1-0.3,0.2-0.4,0.3-0.4c0.1,0,0.1,0.1,0.2,0.2
		c0.3,1,1,3,2.1,6c0.8,2.4,3,8.4,6.3,18c0.1,0.4,0.4,0.8,0.7,1.1C21.8,61,22.4,61,23,61C23.7,61.1,24,61.3,24,61.5z M14.3,52.6
		l-1.9-5.5L10.7,42c-1,2.7-2.2,6.3-3.6,10.6L14.3,52.6z"/>
	<path d="M50.6,61.5c0,0.2-0.2,0.3-0.7,0.3h-8.8c-0.5,0-0.7-0.1-0.7-0.3s0.3-0.3,1-0.4c1.2,0,1.9-0.1,2.2-0.4
		c0.2-0.8,0.3-1.6,0.2-2.5V39c0,0-0.1,0.5-0.4,1.3c-0.9,3-2.3,7.5-4.1,13.5l-1.6,5.9c-0.3,1.2-0.6,1.7-0.7,1.7s-0.3-0.3-0.5-0.9
		c-0.7-2.2-2.6-7.9-5.8-16.8l-1.4-4c0,0.5,0,1.1,0,1.9v12c0,4.5,0,6.8,0.1,6.9c0.2,0.3,0.7,0.5,1.7,0.5c0.8,0,1.2,0.1,1.2,0.4
		s-0.3,0.4-0.7,0.4c-0.3,0-0.6,0-0.9-0.1c-0.3,0-0.6-0.1-0.9-0.1l-4.1,0.2c-0.4,0-0.6-0.1-0.6-0.3s0.7-0.4,2-0.4
		c0.6,0,0.9-0.1,1-0.3c0.1-0.6,0.2-1.3,0.1-1.9V41.1c0-2.1,0-3.2-0.1-3.3c-0.1-0.3-0.3-0.6-0.6-0.7c-0.7-0.2-1.3-0.3-2-0.3
		c-0.4,0-0.6-0.1-0.6-0.3s0.4-0.4,1-0.4h2.5c1.4,0,2.4,0,3,0c0.1,0.3,0.8,2.3,2.1,5.8c0.5,1.5,2,5.8,4.5,13c0.5-1.6,0.9-3.2,1.4-4.8
		l3.8-12.2c0.2-0.7,0.4-1.3,0.6-1.8h5.2c0.4,0,0.9,0,1.3,0.1c0.1,0.1,0.2,0.2,0.2,0.3c0,0.2-0.2,0.4-0.6,0.4c-0.4,0-0.9,0-1.3,0.1
		c-0.5,0-0.9,0.2-1.2,0.6c-0.2,1.4-0.3,2.9-0.2,4.3v17.2c0,1,0.1,1.6,0.3,1.8c0.7,0.3,1.5,0.4,2.3,0.3h0.2
		C50.4,61.2,50.6,61.3,50.6,61.5z"/>
	<path d="M71.2,55c0.1,2.4-1.2,4.5-3.3,5.6c-1.4,0.7-3,1.1-4.6,1.1c-0.5,0-2.1,0-4.8,0h-4.3c-0.4,0-0.6-0.1-0.6-0.3s0.4-0.3,1.1-0.3
		s1.3-0.1,1.5-0.3c0.2-0.5,0.3-1.1,0.2-1.7v-20c0-0.6,0-1.2-0.1-1.9c-0.2-0.3-0.8-0.5-1.8-0.5c-0.6,0-1-0.1-1-0.4s0.3-0.3,0.9-0.3
		h0.4c0.2,0.1,0.5,0.1,0.7,0.1h6.9c2-0.1,4,0.3,5.7,1.3c1.5,1,2.3,2.7,2.2,4.4c0,1.6-0.6,3.1-1.8,4.1c-1.4,1.2-3.2,1.9-5.1,2v0.2
		c1.8,0,3.5,0.5,5,1.4C70.3,50.8,71.4,52.9,71.2,55z M66.5,42.2c0-2.4-0.5-4-1.6-4.7c-0.9-0.5-2-0.7-3.1-0.6c-0.4,0-1,0-1.9,0.1
		v10.7h0.3l1.9-0.1c1.2,0,2.4-0.5,3.1-1.5C66.2,45,66.6,43.6,66.5,42.2z M67.5,54.6c0-3.1-1.2-5-3.6-5.8c-1.3-0.3-2.6-0.4-3.9-0.3
		v11c0,0.7,0.1,1.1,0.2,1.2c0.6,0.2,1.3,0.3,2,0.3c1.5,0.1,2.9-0.5,3.9-1.6C67.1,58,67.7,56.3,67.5,54.6L67.5,54.6z"/>
	<path d="M94.5,55.8c0,0.1,0,0.7-0.1,1.8c0,1.1-0.1,2.2-0.1,3.2V62c-2.3-0.1-6.9-0.2-13.7-0.2h-4.4c-0.4,0-0.7-0.1-0.7-0.3
		c0-0.1,0.1-0.2,0.2-0.2c0,0,0,0,0,0l1.3-0.1c0.6,0,1-0.2,1.1-0.4c0.2-0.6,0.2-1.2,0.2-1.8V38.1c0-0.7-0.1-1.2-0.3-1.3
		c-0.6-0.2-1.3-0.3-1.9-0.2c-0.4,0-0.6-0.1-0.6-0.3s0.3-0.3,0.8-0.3h15c0.7,0,1.3,0,1.9-0.2c0,1.1,0.2,2.5,0.3,4.4l0.1,1.6
		c0,0.2,0,0.3,0,0.5c0,0.2-0.1,0.4-0.3,0.4s-0.4-0.3-0.6-0.9c-0.4-2.2-1.2-3.7-2.2-4.2c-0.8-0.4-2.7-0.7-5.9-0.7h-2.9v10.9h0.8
		c2.7,0,4.3-0.2,4.8-0.6c0.6-0.4,0.9-1.6,1.2-3.7c0-0.5,0.2-0.8,0.4-0.8s0.4,0.2,0.4,0.7s0,1.1-0.1,2s-0.1,1.5-0.1,2
		c0,2.7,0,4.5,0.1,5.5c0,0.2,0,0.5,0,0.6c0,0.3-0.1,0.5-0.4,0.5s-0.3-0.1-0.3-0.3s-0.2-0.9-0.3-2.1c-0.2-1.5-0.8-2.4-1.7-2.7
		c-1.1-0.2-2.2-0.3-3.3-0.2H82v12.4c3,0.1,6.1,0,9.1-0.3c1.6-0.4,2.4-1.9,2.7-4.7c0-0.6,0.2-0.9,0.5-0.9
		C94.4,55,94.5,55.2,94.5,55.8z"/>
	<path d="M117.7,60.5c0,1-0.4,1.7-2.1,1.7c-1.8,0-3.4-0.9-4.3-2.4c-0.4-0.6-0.7-1.3-0.9-2c-0.1-0.7-0.3-2.3-0.6-4.9
		c0-1.3-0.5-2.5-1.4-3.3c-1.2-0.8-2.6-1.1-4-1.1v11.7c0,0.5,0.4,0.8,1.1,0.9c0.2,0,0.8,0,1.6,0.1c0.3,0,0.5,0.1,0.5,0.3
		s-0.2,0.3-0.6,0.3h-8.3c-0.5,0-0.8-0.1-0.8-0.3s0.3-0.3,1-0.3c1.1,0,1.7-0.1,1.8-0.4c0.2-0.5,0.2-1,0.2-1.5V38.8
		c0.1-0.6,0-1.2-0.3-1.8c-0.6-0.3-1.2-0.4-1.8-0.3c-0.6,0-0.9-0.1-0.9-0.3c0-0.2,0.2-0.4,0.6-0.4h0.3l4.7,0.1c0.5,0,1.1,0,2,0
		s1.5,0,2-0.1c1.9-0.1,3.7,0.4,5.2,1.5c1.3,1,2,2.6,1.9,4.2c0,1.7-0.7,3.2-2,4.3c-1.5,1.2-3.4,1.9-5.4,2c-0.2,0-0.3,0.1-0.3,0.1
		s0.1,0.2,0.3,0.2c2.5,0.4,4.2,1.4,5.1,2.7c0.9,1.4,1.6,3.9,1.9,7.5c0.2,2,0.9,3,2,3c0.3,0,0.4-0.1,0.5-0.2s0.1-0.2,0.1-0.6
		 M110.8,42c0-3.5-1.5-5.3-4.4-5.3c-0.6-0.1-1.1,0.1-1.6,0.3c-0.3,0.3-0.5,0.7-0.5,1.2v9.4c2.3,0,3.9-0.4,4.9-1.3
		C110.3,45.2,110.9,43.6,110.8,42L110.8,42z"/>
	<line class="st0" x1="117.2" y1="60.7" x2="117.2" y2="16.6"/>
	<path class="st1" d="M134.2,0.5c0,0-14.2,2-16.6,16.4C117.5,16.9,131.9,14.9,134.2,0.5z"/>
	<path class="st1" d="M141.7,12.9c0,0-20,2.6-23.7,22.8C118,35.6,138.3,33,141.7,12.9z"/>
	<path class="st2" d="M103,14.6c0,0,2.6,10.7,13.7,11.5C116.7,26,114,15.2,103,14.6z"/>
</g>
<g id="Layer_2" class="st3">
	<path class="st4" d="M0,63.5h5.7c0.7,0,1.5,0.1,2.1,0.3c0.5,0.2,1,0.5,1.4,0.8c0.3,0.3,0.6,0.7,0.8,1.2c0.1,0.4,0.2,0.9,0.2,1.4
		c0,0.4-0.1,0.7-0.2,1.1c-0.1,0.3-0.3,0.7-0.6,0.9c-0.3,0.3-0.6,0.5-0.9,0.7c-0.4,0.2-0.7,0.3-1.1,0.3l0,0c0.2,0,0.4,0,0.7,0.1
		c0.4,0.1,0.8,0.3,1.1,0.5c0.4,0.3,0.7,0.7,1,1.1c0.4,0.5,0.6,1.2,0.6,1.8c0,0.6-0.1,1.2-0.4,1.7c-0.2,0.5-0.6,0.9-1,1.2
		c-0.5,0.4-1,0.6-1.6,0.8c-0.7,0.2-1.3,0.3-2,0.3H0V63.5z M5.7,70c1,0.1,1.9-0.2,2.7-0.8c0.6-0.5,0.9-1.3,0.9-2.1
		c0-0.5-0.1-0.9-0.3-1.3c-0.2-0.3-0.5-0.6-0.8-0.9c-0.4-0.2-0.7-0.4-1.1-0.5c-0.4-0.1-0.9-0.2-1.3-0.2H0.9V70L5.7,70z M5.7,77
		c1.1,0.1,2.1-0.2,3-0.8c0.7-0.6,1.2-1.5,1.1-2.4c0-0.5-0.1-1.1-0.4-1.5c-0.3-0.4-0.6-0.7-1-0.9C8,71.1,7.6,71,7.1,70.9
		c-0.5-0.1-0.9-0.1-1.4-0.1H0.9V77L5.7,77z"/>
	<path class="st4" d="M24.3,63.5h1l-5.7,8.3v6h-0.9v-6l-5.7-8.3h1l5.2,7.6L24.3,63.5z"/>
	<path class="st4" d="M37.1,63.5h4.7c1.1,0,2.2,0.2,3.2,0.6c0.8,0.4,1.5,0.9,2,1.6c0.5,0.7,0.9,1.5,1.1,2.3c0.2,0.9,0.3,1.8,0.3,2.6
		c0,1-0.1,1.9-0.4,2.8c-0.2,0.8-0.7,1.6-1.2,2.3c-0.6,0.6-1.3,1.2-2.1,1.5c-1,0.4-2,0.6-3,0.6h-4.6V63.5z M41.9,77
		c0.7,0,1.4-0.1,2-0.3c0.7-0.2,1.3-0.5,1.8-1c0.6-0.6,1-1.2,1.3-2c0.4-1,0.5-2,0.5-3.1c0-0.8-0.1-1.7-0.3-2.5
		c-0.2-0.6-0.4-1.2-0.8-1.8c-0.3-0.5-0.6-0.8-1.1-1.2c-0.4-0.3-0.8-0.5-1.3-0.6c-0.4-0.1-0.9-0.2-1.3-0.3c-0.4,0-0.8-0.1-1.2-0.1H38
		V77H41.9z"/>
	<path class="st4" d="M53.2,63.5h9.6v0.7h-8.7V70h8.2v0.8h-8.2V77h8.8v0.8h-9.7V63.5z"/>
	<path class="st4" d="M76.5,67.6c0-0.6-0.1-1.1-0.4-1.6c-0.2-0.4-0.6-0.8-0.9-1.1c-0.4-0.3-0.9-0.6-1.4-0.7
		c-0.6-0.2-1.2-0.2-1.8-0.2c-0.4,0-0.9,0.1-1.3,0.1c-0.5,0.1-0.9,0.3-1.3,0.5c-0.4,0.2-0.7,0.6-1,0.9C68.1,66,68,66.5,68,67
		c0,0.5,0.1,1,0.4,1.4c0.3,0.4,0.7,0.7,1.1,0.9c0.5,0.2,1,0.4,1.6,0.5l1.8,0.4c0.6,0.1,1.2,0.3,1.8,0.4c0.5,0.2,1.1,0.4,1.6,0.7
		c0.5,0.3,0.8,0.7,1.1,1.1c0.3,0.5,0.5,1.1,0.4,1.7c0,0.7-0.1,1.3-0.5,1.9c-0.3,0.5-0.7,0.9-1.2,1.2c-0.5,0.3-1,0.6-1.6,0.7
		c-0.6,0.1-1.1,0.2-1.7,0.2c-0.8,0-1.6-0.1-2.4-0.3c-0.7-0.2-1.3-0.5-1.9-0.9c-0.6-0.4-1-1-1.3-1.6c-0.3-0.7-0.5-1.5-0.4-2.3h0.9
		c-0.1,0.7,0.1,1.4,0.3,2c0.3,0.5,0.6,1,1.1,1.3c0.5,0.4,1.1,0.6,1.7,0.8c0.7,0.2,1.3,0.2,2,0.2c0.5,0,0.9,0,1.4-0.2
		c0.5-0.1,0.9-0.3,1.3-0.5c0.4-0.3,0.7-0.6,1-1c0.3-0.5,0.4-1,0.4-1.6c0-0.5-0.1-1-0.4-1.5c-0.3-0.4-0.7-0.7-1.1-0.9
		c-0.5-0.2-1-0.4-1.6-0.6c-0.6-0.1-1.2-0.3-1.8-0.4c-0.6-0.1-1.2-0.3-1.8-0.4c-0.5-0.1-1.1-0.4-1.6-0.7c-0.4-0.3-0.8-0.6-1.1-1.1
		c-0.3-0.5-0.4-1.1-0.4-1.7c0-0.6,0.1-1.2,0.4-1.8c0.3-0.5,0.7-0.9,1.1-1.2c0.5-0.3,1-0.5,1.6-0.7c0.6-0.1,1.1-0.2,1.7-0.2
		c0.7,0,1.4,0.1,2.1,0.2c0.6,0.2,1.2,0.4,1.7,0.8c0.5,0.4,0.9,0.8,1.2,1.4c0.3,0.6,0.5,1.3,0.5,2L76.5,67.6z"/>
	<path class="st4" d="M82.5,63.5h0.9v14.3h-0.9V63.5z"/>
	<path class="st4" d="M88.1,70.7c0-1,0.1-2,0.4-2.9c0.3-0.9,0.7-1.7,1.3-2.4c0.6-0.7,1.3-1.3,2.1-1.6c0.9-0.4,1.9-0.6,2.9-0.6
		c0.7,0,1.4,0.1,2.1,0.3c1.3,0.4,2.4,1.3,3.1,2.4c0.4,0.6,0.6,1.3,0.7,2H100c-0.3-1.1-0.9-2.2-1.8-2.9c-0.9-0.7-2.1-1.1-3.3-1.1
		c-0.9,0-1.8,0.2-2.5,0.6c-0.7,0.4-1.3,0.9-1.8,1.5c-0.5,0.6-0.9,1.4-1.1,2.2C89.1,69,89,69.9,89,70.7c0,0.9,0.1,1.7,0.4,2.6
		c0.2,0.8,0.6,1.5,1.1,2.1c0.5,0.6,1.1,1.1,1.8,1.4c0.8,0.4,1.7,0.6,2.6,0.5c0.8,0,1.6-0.1,2.3-0.4c0.7-0.3,1.2-0.7,1.7-1.2
		c0.5-0.5,0.8-1.1,1.1-1.8c0.2-0.8,0.3-1.6,0.3-2.4H95v-0.8h6v7h-0.8v-3l0,0c-0.2,0.5-0.4,1-0.8,1.4c-0.4,0.4-0.8,0.8-1.2,1
		c-0.5,0.3-1,0.5-1.6,0.7c-1.6,0.4-3.2,0.3-4.7-0.3c-0.8-0.4-1.5-0.9-2.1-1.6c-0.6-0.7-1-1.5-1.3-2.3C88.3,72.7,88.1,71.7,88.1,70.7
		z"/>
	<path class="st4" d="M106.2,63.5h1.1l9,13.1l0,0V63.5h0.9v14.3h-1l-9.1-13.2l0,0v13.2h-0.9L106.2,63.5z"/>
</g>
<g id="Layer_3">
	<text transform="matrix(1 0 0 1 -0.9424 78.0504)" class="st5 st6 st7">develops</text>
</g>
</svg>
