<svg xmlns="http://www.w3.org/2000/svg" xmlns:xlink="http://www.w3.org/1999/xlink" version="1.1" x="0px" y="0px" viewBox="0 0 65 81.25" enable-background="new 0 0 65 65" xml:space="preserve"><g><rect x="49" y="7.9" width="1.5" height="1.5"/><rect x="45.5" y="7.9" width="1.5" height="1.5"/><rect x="52.5" y="7.9" width="1.5" height="1.5"/><rect x="53.9" y="29.5" width="3.2" height="1.5"/><rect x="52.8" y="52.2" width="5.4" height="1.5"/><path d="M57.8,27.3V5.2h-44v18.2h-14v36.4h26.1V35.3h5.5l-1.6,3.3h-1.6V40h15.1v-1.5h-1.6l-1.6-3.3h5.6v20.7h19.4V27.3H57.8z    M63.8,31.7H47.3v-2.9h16.4V31.7z M47.3,33.2h16.4V50H47.3V33.2z M56.3,6.7v3.8h-41V6.7H56.3z M15.3,12h41v15.3H45.8v3.4H25.9v-7.3   H15.3V12z M24.4,24.9v3.6H1.3v-3.6H24.4z M24.4,30v23.1H1.3V30H24.4z M1.3,58.3v-3.7h23.1v3.7H1.3z M40.1,38.5h-8.6l1.6-3.3h5.5   L40.1,38.5z M25.9,33.8v-1.6h19.9v1.6H25.9z M47.3,54.4v-3h16.4v3H47.3z"/><rect x="10.7" y="25.9" width="4.2" height="1.5"/><rect x="9.2" y="55.7" width="7.2" height="1.5"/></g><text x="0" y="80" fill="#000000" font-size="5px" font-weight="bold" font-family="'Helvetica Neue', Helvetica, Arial-Unicode, Arial, Sans-serif">Created by Creative Stall</text><text x="0" y="85" fill="#000000" font-size="5px" font-weight="bold" font-family="'Helvetica Neue', Helvetica, Arial-Unicode, Arial, Sans-serif">from the Noun Project</text></svg>