<svg xmlns="http://www.w3.org/2000/svg" xmlns:xlink="http://www.w3.org/1999/xlink" version="1.1" x="0px" y="0px" viewBox="0 0 65 81.25" enable-background="new 0 0 65 65" xml:space="preserve"><g><path d="M62.5,9h-14v1.5h14c0.7,0,1.3,0.6,1.3,1.3v34H1.3v-34c0-0.7,0.6-1.3,1.2-1.3H23V9H2.5C1,9-0.2,10.3-0.2,11.8v37.4   c0,1.5,1.2,2.8,2.8,2.8h20.6v6.3h-3.7v1.5h26.3v-1.5h-3.7v-6.3h20.6c1.5,0,2.8-1.2,2.8-2.8V11.8C65.3,10.3,64,9,62.5,9z M40.4,58.2   H24.6v-6.3h15.8V58.2z M62.5,50.4h-60c-0.7,0-1.2-0.6-1.2-1.3v-1.9h62.5v1.9C63.8,49.9,63.2,50.4,62.5,50.4z"/><path d="M50.3,34.8v3.7c0,2.8,2.3,5,5,5c2.8,0,5-2.3,5-5v-3.7c0-2.4-1.7-4.4-4-4.9c1-2.9,0.4-3.8-0.6-4.9c-0.6-0.6-1.2-1.3-1.2-3.3   H53c0,2.6,0.9,3.6,1.6,4.3c0.7,0.7,1.1,1.2,0.1,3.8C52.3,30.1,50.3,32.2,50.3,34.8z M58.8,34.8v3.7c0,1.9-1.6,3.5-3.5,3.5   c-1.9,0-3.5-1.6-3.5-3.5v-3.7c0-1.9,1.6-3.5,3.5-3.5C57.2,31.3,58.8,32.9,58.8,34.8z"/><rect x="54.6" y="33" width="1.5" height="1.8"/><polygon points="20.8,40.4 25.4,36.3 20.8,32.3 19.8,33.4 23.1,36.3 19.8,39.2  "/><polygon points="9.5,32.3 5,36.3 9.5,40.4 10.5,39.2 7.2,36.3 10.5,33.4  "/><rect x="7.5" y="35.6" transform="matrix(-0.4432 0.8964 -0.8964 -0.4432 54.4777 38.8517)" width="15.3" height="1.5"/><path d="M25.1,15.9l-2.7,0.5l0,4.6l2.7,0.5c0.3,1,0.6,1.9,1.1,2.7l-1.6,2.3l3.3,3.2l2.3-1.6c0.9,0.5,1.8,0.9,2.7,1.1l0.5,2.7l4.6,0   l0.5-2.7c1-0.3,1.9-0.6,2.7-1.1l2.3,1.6l3.2-3.3l-1.6-2.3c0.5-0.8,0.9-1.8,1.1-2.7l2.7-0.5l0-4.6l-2.7-0.5c-0.3-1-0.6-1.9-1.1-2.7   l1.6-2.3l-3.3-3.2l-2.3,1.6c-0.9-0.5-1.8-0.9-2.7-1.1l-0.5-2.7l-4.6,0l-0.5,2.7c-0.9,0.3-1.9,0.6-2.7,1.1l-2.3-1.6l-3.2,3.3   l1.6,2.3C25.7,14,25.3,15,25.1,15.9z M26.4,16.7c0.2-1.1,0.7-2.2,1.3-3.1l0.3-0.4l-1.4-2.1L28,9.6l2.1,1.4l0.4-0.3   c1-0.6,2-1.1,3.1-1.3l0.5-0.1l0.4-2.5l2.1,0l0.5,2.5l0.5,0.1c1.1,0.2,2.2,0.7,3.2,1.3l0.4,0.3l2.1-1.4l1.5,1.5l-1.4,2.1l0.3,0.4   c0.6,1,1.1,2,1.3,3.1l0.1,0.5l2.5,0.4l0,2.1l-2.5,0.5L45,20.6c-0.2,1.1-0.7,2.2-1.3,3.2l-0.3,0.4l1.4,2.1l-1.5,1.5l-2.1-1.4   l-0.4,0.3c-0.9,0.6-2,1.1-3.1,1.3L37.2,28l-0.4,2.5l-2.1,0L34.2,28l-0.5-0.1c-1.1-0.2-2.2-0.7-3.1-1.3l-0.4-0.3l-2.1,1.4l-1.5-1.5   l1.4-2.1l-0.3-0.4c-0.6-1-1.1-2-1.3-3.1l-0.1-0.5l-2.5-0.4l0-2.1l2.5-0.5L26.4,16.7z"/><path d="M35.7,24.7c3.3,0,6-2.7,6-6c0-3.3-2.7-6-6-6c-3.3,0-6,2.7-6,6C29.7,22,32.4,24.7,35.7,24.7z M35.7,14.2   c2.5,0,4.5,2,4.5,4.5s-2,4.5-4.5,4.5s-4.5-2-4.5-4.5S33.2,14.2,35.7,14.2z"/></g><text x="0" y="80" fill="#000000" font-size="5px" font-weight="bold" font-family="'Helvetica Neue', Helvetica, Arial-Unicode, Arial, Sans-serif">Created by Creative Stall</text><text x="0" y="85" fill="#000000" font-size="5px" font-weight="bold" font-family="'Helvetica Neue', Helvetica, Arial-Unicode, Arial, Sans-serif">from the Noun Project</text></svg>