<svg xmlns="http://www.w3.org/2000/svg" xmlns:xlink="http://www.w3.org/1999/xlink" version="1.1" x="0px" y="0px" viewBox="0 0 65 81.25" enable-background="new 0 0 65 65" xml:space="preserve"><g><path d="M61.5,4.1h-58c-2.1,0-3.8,1.7-3.8,3.8v37c0,2.1,1.7,3.8,3.8,3.8h20.3v7.7h-3.4c-1,0-1.8,0.8-1.8,1.8v3h27.8v-3   c0-1-0.8-1.8-1.8-1.8h-3.4v-7.7h20.3c2.1,0,3.8-1.7,3.8-3.8v-37C65.3,5.7,63.6,4.1,61.5,4.1z M3.5,5.6h58c1.2,0,2.3,1,2.3,2.3V42   H1.3V7.8C1.3,6.6,2.3,5.6,3.5,5.6z M44.6,57.7c0.1,0,0.3,0.1,0.3,0.3v1.5H20.1V58c0-0.1,0.1-0.3,0.3-0.3H44.6z M39.8,56.2H25.3   v-7.7h14.5V56.2z M61.5,47.1h-58c-1.2,0-2.3-1-2.3-2.3v-1.3h62.5v1.3C63.8,46.1,62.7,47.1,61.5,47.1z"/><rect x="21.6" y="13.1" width="26.7" height="1.5"/><rect x="21.6" y="17" width="20.9" height="1.5"/><polygon points="15.3,14.3 14.3,13.2 10.7,16.8 9.6,15.7 8.6,16.7 10.7,18.9  "/><path d="M12,22c3.4,0,6.2-2.8,6.2-6.2c0-3.4-2.8-6.2-6.2-6.2c-3.4,0-6.2,2.8-6.2,6.2C5.8,19.2,8.6,22,12,22z M12,11.1   c2.6,0,4.7,2.1,4.7,4.7c0,2.6-2.1,4.7-4.7,4.7c-2.6,0-4.7-2.1-4.7-4.7C7.3,13.2,9.4,11.1,12,11.1z"/><rect x="21.6" y="29.5" width="26.7" height="1.5"/><rect x="21.6" y="33.4" width="20.9" height="1.5"/><path d="M12,38.3c3.4,0,6.2-2.8,6.2-6.2c0-3.4-2.8-6.2-6.2-6.2c-3.4,0-6.2,2.8-6.2,6.2C5.8,35.6,8.6,38.3,12,38.3z M12,27.5   c2.6,0,4.7,2.1,4.7,4.7c0,2.6-2.1,4.7-4.7,4.7c-2.6,0-4.7-2.1-4.7-4.7C7.3,29.6,9.4,27.5,12,27.5z"/><polygon points="10.4,34.8 12,33.2 13.5,34.8 14.6,33.7 13,32.2 14.6,30.6 13.5,29.6 12,31.1 10.4,29.6 9.4,30.6 10.9,32.2    9.4,33.7  "/><path d="M52.5,28.2c0.1,0.3,0.4,0.5,0.7,0.5c0,0,0,0,0,0c0.3,0,0.6-0.2,0.7-0.5l1.1-3.1l3.4,3.4c0.1,0.1,0.3,0.2,0.5,0.2   c0.2,0,0.4-0.1,0.5-0.2c0.3-0.3,0.3-0.8,0-1.1L56.1,24l3.1-1.1c0.3-0.1,0.5-0.4,0.5-0.7c0-0.3-0.2-0.6-0.5-0.7l-8.4-2.7   c-0.3-0.1-0.6,0-0.8,0.2c-0.2,0.2-0.3,0.5-0.2,0.8L52.5,28.2z M56.6,22.3L54.5,23c0,0,0,0,0,0c-0.1,0-0.2,0.1-0.3,0.2c0,0,0,0,0,0   c-0.1,0.1-0.1,0.2-0.2,0.3c0,0,0,0,0,0l-0.8,2.1l-1.6-4.9L56.6,22.3z"/></g><text x="0" y="80" fill="#000000" font-size="5px" font-weight="bold" font-family="'Helvetica Neue', Helvetica, Arial-Unicode, Arial, Sans-serif">Created by Creative Stall</text><text x="0" y="85" fill="#000000" font-size="5px" font-weight="bold" font-family="'Helvetica Neue', Helvetica, Arial-Unicode, Arial, Sans-serif">from the Noun Project</text></svg>