<svg id="Layer_1" data-name="Layer 1" xmlns="http://www.w3.org/2000/svg" viewBox="0 0 127.25 159.32"><defs><style>.cls-1{fill:#3f5491;}.cls-2{fill:none;stroke:#3f5491;stroke-miterlimit:10;stroke-width:2px;}.cls-3{fill:#fff;}</style></defs><title>development</title><circle class="cls-1" cx="63.62" cy="63.62" r="63.62"/><line class="cls-2" x1="27.75" y1="158.32" x2="99.5" y2="158.32"/><path class="cls-3" d="M108,31H87.14v2.24H108a2,2,0,0,1,1.94,1.94V85.88H16.8V35.21a2,2,0,0,1,1.79-1.94H49.14V31H18.59a4.14,4.14,0,0,0-4,4.17V91a4.17,4.17,0,0,0,4.17,4.17h30.7v9.39H43.92v2.24h39.2v-2.24H77.61V95.12h30.7A4.17,4.17,0,0,0,112.48,91V35.21A4.77,4.77,0,0,0,108,31ZM75.07,104.36H51.52V95H75.07ZM108,92.74H18.59A1.85,1.85,0,0,1,16.8,90.8V88h93.15V90.8A1.88,1.88,0,0,1,108,92.74Z" transform="translate(0.1 -2.59)"/><path class="cls-3" d="M89.83,69.49V75a7.45,7.45,0,0,0,14.9,0V69.49a7.5,7.5,0,0,0-6-7.3c1.49-4.32.6-5.66-.89-7.3C97,54,96.09,52.95,96.09,50H93.85c0,3.87,1.34,5.37,2.38,6.41s1.64,1.79.15,5.66A7.56,7.56,0,0,0,89.83,69.49Zm12.67,0V75a5.22,5.22,0,1,1-10.43,0V69.49a5.22,5.22,0,1,1,10.43,0Z" transform="translate(0.1 -2.59)"/><rect class="cls-3" x="96.34" y="64.22" width="2.24" height="2.68"/><polygon class="cls-3" points="45.96 75.25 52.82 69.14 45.96 63.18 44.47 64.82 49.39 69.14 44.47 73.46 45.96 75.25"/><polygon class="cls-3" points="30.56 67.15 23.18 73.71 30.56 80.42 32.19 78.46 26.79 73.71 32.19 68.96 30.56 67.15"/><rect class="cls-3" x="26.08" y="70.64" width="22.8" height="2.24" transform="translate(-43.35 70.97) rotate(-63.69)"/><path class="cls-3" d="M52.27,41.32l-4,.75v6.86l4,.75a16.26,16.26,0,0,0,1.64,4l-2.38,3.43,4.92,4.77,3.43-2.38a15.26,15.26,0,0,0,4,1.64l.75,4h6.86l.75-4a16.26,16.26,0,0,0,4-1.64l3.43,2.38L84.46,57l-2.38-3.43a13.47,13.47,0,0,0,1.64-4l4-.75V41.92l-4-.75a16.26,16.26,0,0,0-1.64-4l2.38-3.43L79.54,29l-3.43,2.38a15.26,15.26,0,0,0-4-1.64l-.75-4H64.49l-.75,4a19,19,0,0,0-4,1.64L56.29,29l-4.77,4.92,2.38,3.43A13.47,13.47,0,0,0,52.27,41.32Zm1.94,1.19a12.7,12.7,0,0,1,1.94-4.62l.45-.6L54.5,34.17l2.09-2.24L59.72,34l.6-.45a13.89,13.89,0,0,1,4.62-1.94l.75-.15.6-3.73h3.13l.75,3.73.75.15a14.63,14.63,0,0,1,4.77,1.94l.6.45,3.13-2.09,2.24,2.24L79.54,37.3l.45.6a13.89,13.89,0,0,1,1.94,4.62l.15.75,3.73.6V47l-3.73.75-.15.6A14.63,14.63,0,0,1,80,53.09l-.45.6,2.09,3.13-2.24,2.24L76.26,57l-.6.45A12.7,12.7,0,0,1,71,59.35H70.3l-.6,3.73H66.58l-.75-3.73-.75-.15a12.7,12.7,0,0,1-4.62-1.94l-.6-.45-3.13,2.09L54.5,56.67l2.09-3.13-.45-.6a13.89,13.89,0,0,1-1.94-4.62l-.15-.75L50.33,47V43.85l3.73-.75Z" transform="translate(0.1 -2.59)"/><path class="cls-3" d="M68.07,54.44a8.94,8.94,0,1,0-8.94-8.94A9,9,0,0,0,68.07,54.44Zm0-15.65a6.71,6.71,0,1,1-6.71,6.71A6.68,6.68,0,0,1,68.07,38.79Z" transform="translate(0.1 -2.59)"/></svg>