<svg id="Layer_1" data-name="Layer 1" xmlns="http://www.w3.org/2000/svg" viewBox="0 0 127.25 159.32"><defs><style>.cls-1{fill:#91408a;}.cls-2{fill:none;stroke:#cdd3b4;stroke-miterlimit:10;stroke-width:2px;}.cls-3{fill:#fff;}</style></defs><title>design</title><circle class="cls-1" cx="63.62" cy="63.62" r="63.62"/><line class="cls-2" x1="27.75" y1="158.32" x2="99.5" y2="158.32"/><rect class="cls-3" x="88.9" y="25.11" width="2.29" height="2.11"/><rect class="cls-3" x="83.56" y="25.11" width="2.29" height="2.11"/><rect class="cls-3" x="94.25" y="25.11" width="2.29" height="2.11"/><rect class="cls-3" x="96.39" y="55.5" width="4.89" height="2.11"/><rect class="cls-3" x="94.71" y="87.43" width="8.25" height="2.11"/><path class="cls-3" d="M101.89,55V23.9H34.67V49.5H13.29v51.2H53.16V66.24h8.4l-2.44,4.64H56.67v2H79.74V70.74H77.29L74.85,66.1H83.4V95.22H113V55Zm9.17,6.19H85.85V57.1H110.9v4.08Zm-25.2,2.11H110.9V86.92H85.85ZM99.59,26v5.35H37V26ZM37,33.47H99.59V55h-16v4.78H53.16V49.5H37Zm13.9,18.15v5.06H15.58V51.61Zm0,7.17V91.28H15.58V58.79ZM15.58,98.59v-5.2H50.87v5.2ZM74.85,70.74H61.71l2.44-4.64h8.4ZM53.16,64.13V61.88h30.4v2.25Zm32.69,29V88.89H110.9v4.22Z" transform="translate(0.46 -2.59)"/><rect class="cls-3" x="30.4" y="50.43" width="6.42" height="2.11"/><rect class="cls-3" x="28.11" y="92.35" width="11" height="2.11"/></svg>