<svg id="Layer_1" data-name="Layer 1" xmlns="http://www.w3.org/2000/svg" viewBox="0 0 127.25 159.32"><defs><style>.cls-1{fill:#cdd3b4;}.cls-2{fill:none;stroke:#91408a;stroke-miterlimit:10;stroke-width:2px;}.cls-3{fill:#fff;}</style></defs><title>usability</title><circle class="cls-1" cx="63.62" cy="63.62" r="63.62"/><line class="cls-2" x1="27.75" y1="158.32" x2="99.5" y2="158.32"/><path class="cls-3" d="M108.21,30.42H87.42L49.55,32.65h58.66a2,2,0,0,1,1.93,1.93v50.5H17.32V34.58a1.94,1.94,0,0,1,1.78-1.93H49.55L93,30.42H19.1a4.12,4.12,0,0,0-4,4.16V90.13a4.15,4.15,0,0,0,4.16,4.16H49.84v9.36h-5.5v2.23H83.41v-2.23h-5.5V94.29h30.59a4.15,4.15,0,0,0,4.16-4.16V34.58A4.75,4.75,0,0,0,108.21,30.42ZM75.39,103.49H51.92V94.14H75.39Zm32.82-11.58H19.1A1.84,1.84,0,0,1,17.32,90V87.16h92.82V90A1.87,1.87,0,0,1,108.21,91.91Z" transform="translate(-0.25 -2.59)"/><rect class="cls-3" x="45.83" y="42.62" width="39.65" height="2.23"/><rect class="cls-3" x="45.83" y="48.42" width="31.04" height="2.23"/><polygon class="cls-3" points="36.47 44.41 34.99 42.77 29.64 48.12 28.01 46.48 26.52 47.97 29.64 51.24 36.47 44.41"/><path class="cls-3" d="M31.83,58.43a9.21,9.21,0,1,0-9.21-9.21A9.25,9.25,0,0,0,31.83,58.43Zm0-16.19a7,7,0,1,1-7,7A7,7,0,0,1,31.83,42.24Z" transform="translate(-0.25 -2.59)"/><rect class="cls-3" x="45.83" y="66.98" width="39.65" height="2.23"/><rect class="cls-3" x="45.83" y="72.77" width="31.04" height="2.23"/><path class="cls-3" d="M31.83,82.64a9.21,9.21,0,1,0-9.21-9.21A9.16,9.16,0,0,0,31.83,82.64Zm0-16a7,7,0,1,1-7,7A7,7,0,0,1,31.83,66.6Z" transform="translate(-0.25 -2.59)"/><polygon class="cls-3" points="29.2 74.85 31.57 72.48 33.8 74.85 35.43 73.22 33.06 70.99 35.43 68.61 33.8 67.13 31.57 69.36 29.2 67.13 27.71 68.61 29.94 70.99 27.71 73.22 29.2 74.85"/><path class="cls-3" d="M92,67.64a1.12,1.12,0,0,0,1,.74h0a1.12,1.12,0,0,0,1-.74L95.69,63l5,5a1.08,1.08,0,0,0,1.49,0,1.17,1.17,0,0,0,0-1.63l-4.9-5,4.6-1.63a1.1,1.1,0,0,0,0-2.08l-12.48-4A1.19,1.19,0,0,0,88,55.16Zm6.09-8.76-3.12,1h0c-.15,0-.3.15-.45.3h0c-.15.15-.15.3-.3.45h0L93,63.77,90.64,56.5Z" transform="translate(-0.25 -2.59)"/></svg>