<?xml version="1.0" standalone="no"?>
<!DOCTYPE svg PUBLIC "-//W3C//DTD SVG 20010904//EN"
 "http://www.w3.org/TR/2001/REC-SVG-20010904/DTD/svg10.dtd">
<svg version="1.0" xmlns="http://www.w3.org/2000/svg"
 width="407.000000pt" height="407.000000pt" viewBox="0 0 407.000000 407.000000"
 preserveAspectRatio="xMidYMid meet">
<metadata>
Created by potrace 1.14, written by Peter Selinger 2001-2017
</metadata>
<g transform="translate(0.000000,407.000000) scale(0.100000,-0.100000)"
fill="#000000" stroke="none">
<path d="M1305 3408 c-26 -62 -75 -176 -107 -253 -33 -77 -89 -207 -123 -290
-35 -82 -246 -582 -470 -1110 -224 -528 -426 -1006 -450 -1062 l-43 -103 82 0
81 1 164 392 c91 216 186 442 212 502 25 61 76 180 112 265 36 85 172 407 302
715 130 308 250 595 268 637 18 43 35 78 38 78 3 0 180 -408 393 -907 214
-500 463 -1082 554 -1295 l166 -388 788 0 788 0 -9 23 c-10 25 -255 611 -354
847 -255 607 -425 1014 -452 1080 -26 65 -288 688 -352 840 -25 58 -47 113
-50 123 -5 16 -49 17 -748 17 l-743 0 -47 -112z"/>
</g>
</svg>
