<svg id="Layer_1" data-name="Layer 1" xmlns="http://www.w3.org/2000/svg" viewBox="0 0 559.5 616.3"><title>Artboard 1_1</title><g id="Fill-225"><path id="path-3" d="M535.15,309a26.6,26.6,0,0,0-.56-5.82c-.55-3-1.53-5.78-2.19-8.69-1-4.43-3-8.49-4.52-12.69a23.5,23.5,0,0,0-1.84-4.21,19,19,0,0,1-2.07-4.1c-.06-.16-.27-.69-.9-.24a8,8,0,0,0,.53,2.1c1.56,3.13,2.54,6.51,3.81,9.77a100.42,100.42,0,0,1,3.43,10.63c.52,1.91,1.13,3.85,1.67,5.72.68,2.33.92,4.92,2.64,7.53M352.92,182.21c1,0,1.31.93,2.46.53a16.71,16.71,0,0,0,2.8-1.71,3.83,3.83,0,0,0,1.89-3.36c.06-1.13,1-.74,1.47-1.26.09-2.29,0-4.57-2.47-6.49-1.95,4.24-5.47,7.31-6.15,12.29m81.22,304.14c-5.43,2.65-17.31,12-18.93,16.87,1.45-.91,3.07-1.08,3.57-3,.18-.7,1.23-1.11,1.66-1.8.63-1,1.79-.05,2.49-.94s2.13-1.44,2.58-2.44c.62-1.36,2.06-1.32,2.83-2.29a7.23,7.23,0,0,1,2.52-2.44c1.18-.44,1.31-2.11,2.63-2s1-2,2.41-1.75c1.21-1.41,3.11-1.95,4.24-3.48.4-.54.6-.95,0-1.54-1.58.23-2.67,1.45-3.81,2.21-.84-.12-1.14-1.21-2-.6-.06.06-.2.14-.2.23,0,.94,0,1.89,0,3M464,500.41c-3.41,1.24-5.3,4.28-8.16,6.09a85.65,85.65,0,0,0-8.37,6.31c-2.78,2.28-5.44,4.71-8.13,7.06a1.52,1.52,0,0,0,1.82-.1c1.91-2,5.2-1.88,6.66-4.49,2,0,2.87-1.7,4.2-2.73a4.89,4.89,0,0,1,3-1.15,6.42,6.42,0,0,1,3-2.92c1.12-.52,1.75-1.93,3.12-2.24-.91-1.94-.77-2.12,2.08-2.89-.08-.45-.77-.53-.56-1.44l1.3-1.5m-91-103.78a114.54,114.54,0,0,0,10.67-17.28c3.78-7.19,7.36-14.48,11.08-21.7a1.87,1.87,0,0,0-.12-2.22C386.79,368.49,380,382,373,395.29c-.19.35,0,.89,0,1.34M113.66,210.83c-1.2,1.21-2.41,2.25-3.41,3.46s-2.3,2-3.33,3.12c-1.39,1.55-2.38,3.39-3.9,4.83a87.23,87.23,0,0,0-8.08,9.4c-4,5.09-7.15,10.75-10.47,16.27-.77,1.28-1.33,2.68-2,4,10.75-13.25,19.93-27.61,31.42-40.19.08-.09-.1-.41-.24-.91m161,368c.25,1.07.4,1.7.56,2.33-1.9.09-.73,2.51-2.54,3-1.93.13-4.23-.22-6.45.67-1,.42-.93.77-.45,1.47,1.7,0,3.45.33,4.81-.75.82.32.27,1.24,1,1.47,2.2,0,4.63.53,6.65-.15,2.23-.75,4.34-.41,6.5-.54s4.49,0,6.74,0c.59,0,1.18,0,1.77,0,.2,0,.39-.19.59-.29,0-.56.22-1.14-.14-1.67-2.09.82-2,.72-3.46-.54-.75-.67.05-1.1-.09-1.54-.39-1.29-1.84-.64-2.53-1.28-.65-.43.49-1.38-.67-1.72-.5,1.12.45,2.75-1.3,3.38-1.89-.89-1.89-.89-3.14,1.06-.06.89,1.35.06,1.32,1.13-.88-.12-1.89.71-2.14-1-.08-.51-1.45-.82-1.89-1.05-.82-.06-.83.81-1.39.45-.93-.58-1-1.62-1.48-2.36.41-.61,1.12-.86,1.24-1.49-1.16-.72-1.47.89-2.41.48l-1.12-1.05m22.58-90.16c.1-2.53,1.8-4.49,2.37-6.85.71-2.89,1.66-5.72,2.43-8.6.65-2.46,1.42-4.86,1.89-7.39s1.53-5.05,2.16-7.64,1.19-5.4,2.1-8a33,33,0,0,0,1.41-4.39,22.43,22.43,0,0,1,1.45-5.08c.75-1.6.07-3.72,1.9-4.93.44-.29.24-1.08.07-1.63-.09-.27-.48-.69-.44-.73,1.5-1.41.94-3.5,1.84-5.3-.68.13-1.06,0-1.34.84-1.25,3.85-2.75,7.63-4,11.49-.43,1.36-1.26,2.69-1,4.23-1.68,2.81-2,6.1-2.68,9.16s-1.62,6.26-2.43,9.35c-1.81,6.82-3.26,13.74-5.56,20.42.41,1.71-1.46,3.19-.23,5.05M67.82,449.82a7.88,7.88,0,0,0-1.27-2.34c-.33-.31-.86-.21-1.07-1a89.91,89.91,0,0,0-2.86-9.11c-.6-1.51-.79-3.21-2-4.53-3.15-3.52-6.21-7.13-9.3-10.71-.29-.33-.78-.51-.78-1.1,0-.82-.78-1.12-1.25-1.59s-.7-1.12-1.78-1.17a111.51,111.51,0,0,0,7.39,13.84q3.78,6.27,7.77,12.41c1.22,1.86,2.21,3.83,3.27,5.76.13.25.45.4.59.52l1.26-1M264.24,250.64c1.5-.24,1.12-1.69,2-2.41a13,13,0,0,0,2.21-2.59c2.53-3.63,5.37-7,8.13-10.51,2-2.5,4.07-5,5.88-7.56s4-4.9,5.64-7.57,4.2-4.37,5-7.44c-1.68-1.19-3-1.2-4.3.43-1.93,2.35-3.69,4.84-5.47,7.31-1.24,1.73-2.28,3.61-3.62,5.24a96.89,96.89,0,0,0-7,10.28c-2.68,4.22-5.35,8.44-8.08,12.62a2.24,2.24,0,0,0-.36,2.2m146,263.67c1.35-1.38,3.17-2,4.82-2.84,1.95-1.05,3.74-2.4,5.67-3.5.73-.42.5-1.84,1.76-1.57,1.9-3.43,5-5.62,8.08-7.85l1.11.76,1-1-.67-.75c.47-.84,1.63.23,2-.81l-1.25-.47c.11-2.17.11-2.18,2.1-2.61.39-.08.63-.23.62-.66.1-.58-.45-.77-.7-1.12.39-.81,2-1.09,1.27-2.33-2.27.73-3.51,2.63-5.19,4-2,1.53-4,2.91-5.9,4.58s-3.64,3.21-5.51,4.73c-2.11,1.71-4.47,3.13-6.39,5.09-.66.68-1.23,1.65-2,1.94a6.85,6.85,0,0,0-2.44,1.84c-.79.74-1.54,1.53-2.26,2.25,1.4,1.25,2.67-1.42,3.85.34m-29.48,88.76a1.87,1.87,0,0,0,2,.09c2.8-1.28,5.75-2.19,8.62-3.22,5.18-1.88,10.18-4.08,15.16-6.38a262,262,0,0,0,24.86-13c3.44-2.05,6.85-4.15,10.16-6.39,3.54-2.41,6.89-5.09,10.42-7.51s6.41-5.1,9.67-7.57c2.74-2.08,5-4.74,7.95-6.57a8.23,8.23,0,0,0,1.52-1.49c.48-.52,1.12-.94,1.37-1.55a1,1,0,0,0-1.48.23,29.89,29.89,0,0,1-5,4.19c-4.19,3-8,6.36-12.08,9.42-2.18,1.64-4.25,3.52-6.52,4.92-5.12,3.15-10,6.65-15.13,9.78-6.9,4.21-14.07,7.86-21.08,11.85-1.66,1-3.55,1.25-5.15,2.17a63.23,63.23,0,0,1-11,5.2c-2.91,1-5.56,2.58-8.57,3.42a18.79,18.79,0,0,0-5.65,2.4M31,233l1.05-1.09c-.77-.58-.83-1.53-1.29-2.23.44-1.36,2.37.26,2.67-1.33-.27-.61-1.21,0-1.36-.83-.22-1.22.71-2,1.07-3.06.57-.15,1.21.27,1.7-.29-.57-.73-1.06-1.5-.43-2.42,1.26-1.83,1.61-4.24,3.52-5.65.7-.52.41-1.59,1.25-2-.49-1.68.73-2.79,1.44-4,2.32-4,4.58-8.1,7.13-12C51.15,193,54.54,187.8,58.38,183c2.64-3.32,5-6.93,8.21-9.79.5-.45.56-.94.1-1.3-12.94,11.21-21.76,25.37-29.25,40.5-.44-.46-.79-1-1.52-.67a25,25,0,0,1-1.74,3.52c-.91,1.33-.91,2.48.11,3.48l-1.88,3.57c-.58.05-1.32-.06-1.45.17-.93,1.64-2.45,3.11-1.62,5.31-1.59-.11-1.39,1.41-2.15,1.95.58,1.21-1.61,2-.39,3.44.87,1,.37,2.05-.95,2.53-.17-.18-.34-.34-.58-.58.13,1.07-1.47,1.5-.94,2.62.58.61.8-1,1.43.06a39.56,39.56,0,0,1-2.41,5.63,3.87,3.87,0,0,0-.26,3.34c.82-1.43,1-3,2.55-3.46-.5-.49-1.07-.88-.37-1.74s1.39-.69,2.2-.75a.27.27,0,0,0,.17-.48l-1.43-.51c1.36-2.57,2.29-5.26,4.06-7.54L31,233m31.56-14.9c2.7-1.49,3.89-4,5.7-5.82A58.65,58.65,0,0,0,72.55,207c1.49-2,3.34-3.56,4.8-5.47a77.39,77.39,0,0,1,6.82-8.18c.67-.67,1.6-1.23,1.94-2,.91-2.18,2.91-3.3,4.37-4.93s2.44-3.66,4.22-5.05c.47-.37,1-.31,1.52-1,2-3,5.13-5,7-8.14,1.45-.2,1.55-1.74,2.46-2.49s1.71-1.68,2.64-2.61c-1.71-.75-2,.76-2.85,1.23a59.75,59.75,0,0,0-9.8,7.21,141.62,141.62,0,0,0-16,17.53c-1.22,1.55-2.67,2.89-3.8,4.46-3.85,5.37-7.61,10.82-11.3,16.3a11.4,11.4,0,0,0-2,4.35m127.7-128c-1.37-1-2.22-.45-3.09.2v2.43c-2.15.11-1.67,2.8-3.64,3.66-1.63.71-2.81,2.45-4.17,3.71.35.8,1.47.19,1.72,1.2,1.2-1.05,2-2.64,3.94-2.27V97.34c1.41-.37,2.23-1.5,3.19-2.46s2.65-1,2.73-2.72c1.7.16,1.63-1.81,2.87-2.38s1.91-1.7,2.83-2.62,1.7-2.22,2.62-3.12a24.31,24.31,0,0,1,2.63-2.82c1.11-.77,2.55-1.25,3.05-2.6a4.75,4.75,0,0,1,2.95-2.68c-.55-2.28,1.28-2.4,2.89-2.71-.37-.37-.53-.54-.71-.71,0-.86,1-.19,1.25-.75.72-1.53,1.37-3.25,2.8-4.13,1.61-1,2.4-2.6,3.65-3.84,4.9-4.88,9.89-9.66,15.05-14.27.35-.31.63-.86,1-1,2.33-.49,3.51-2.47,5.21-3.8s3.37-3.28,5.27-4.46a38.48,38.48,0,0,0,7.91-6c.47.17.51.7.76.58,1.36-1.26,2.43-3,3.81-3.34,1.87-.41,2.42-1.81,4.1-2.87-3.38.35-3.38.35-5.18,2.11-1.12-.84-2.29.85-3.6-.05-.3,1.29-.09,3-2.22,2.79a.81.81,0,0,0-.87.45c-1,2.2-3.31,2.85-5,4.17-1.34,1-2.79,2.36-4.64,1.87a6.74,6.74,0,0,1-3.26,3.61l-.93-.87c-.42.91-.82,1.8-1.24,2.73a7.45,7.45,0,0,0-3.35,1.25v1.41A4.24,4.24,0,0,0,228.14,50c-.63.7-1.74.67-2.09,1.93-.24.9-1.41,1.54-2.16,2.29-.8.18-1.72-.21-2.65.41l2,.77c-1.9.06-1.91,1.57-2.77,2.33-1.42,1.25-2.7,2.66-4,4,.59,1.44-1.54.62-1.47,1.84.08,1.41-1.74-.06-2,1.06l.21.26c-1.69,1.69-3.26,3.26-4.82,4.84-.37.49-.46-.89-1-.22-1,1,1.62,1.39.33,2.43-.47.14-.48-.77-1.09-.37-.35.56.26,1.4-.47,1.92-.37-.46-.74-.93-1.07-.81-.78.34-.69.72-.69,1.06,0,1.52-.27,2.84-1.91,3.42,0,1.46-1.59,1.35-2.24,2.21s-1.87,1.57-2.45,2.56c-1.89,3.19-5,5.23-7.41,8.16M3.6,294.6A2,2,0,0,1,3,292.06C4.58,287.11,5.4,282,6.86,277a51.71,51.71,0,0,0,1.75-8.2c.27-2.2,1.37-4.19,1.7-6.42.36-2.4,1.38-4.66,1.91-7,.44-2,1.6-3.82,2.12-5.88a90.77,90.77,0,0,1,2.82-8.79c.68-1.85,1.1-3.85,2.43-5.4.35-.4.27-.85.42-1.26a45.24,45.24,0,0,1,2.07-5.19c1.78-3.53,3.23-7.22,5.06-10.72,1.33-2.53,2.51-5.13,3.76-7.7s2.47-4.92,3.77-7.34a164.83,164.83,0,0,1,10.08-16.47,135.21,135.21,0,0,1,9.46-11.79,91.07,91.07,0,0,1,8.44-8.89c2.47-2.13,4.64-4.64,7.26-6.51s4.86-3.69,7.26-5.5q8.37-6.32,17.18-11.92c3.46-2.2,7-4.35,10.4-6.6,4-2.64,8.27-4.81,12.27-7.44,2.35-1.53,5-2.81,7.47-4.22s5-2.38,7.29-3.89a78.83,78.83,0,0,1,7.29-3.92c2.28-1.18,4.45-3,7.19-3.21,1.18-1.94,3.49-1.94,5.22-2.9s3.55-1.83,5.18-2.88,3.43-2.14,5.13-3.17c3.45-2.08,6.68-4.47,10.1-6.55,2.09-1.27,3.64-3.07,5.56-4.48a69.32,69.32,0,0,0,10.11-9.2,17.9,17.9,0,0,1,4.17-3.55c1.2-.7,1.23-2.12,2.24-3,1.64-1.36,3-3,4.57-4.48a1.94,1.94,0,0,0,.83-1.75l1.81-.19c.54-.54-.35-.47-.29-.91.57-.67,1-1.55,2.05-1.86s.79-1.47,1.56-2.06c1.66-1.29,2.06-3.91,4.52-4.44.68-2,2.35-3.25,3.5-4.89A4.13,4.13,0,0,1,215,54.59c.93-.21.31-2,1.69-1.77,1.44-3.23,4.66-4.73,7.12-6.84,4-3.37,7.69-7.06,12.25-9.79,2.28-1.36,4.25-3.44,6.55-4.87,5.16-3.22,10.12-6.8,15.67-9.4,2.29-1.07,4.35-2.66,6.65-3.71,4.88-2.23,9.77-4.47,14.81-6.33a5.48,5.48,0,0,1,2.94-.67c1.19.2,1.61-1.17,2.68-1.53,1.27-.42,2.63-.19,3.92-.88.71-.38,2-.46,2.81-.9,2.69-1.43,5.87-1.14,8.52-2.63,1-.57,2.27-.35,3.35-.42,3.63-.23,7-2.12,10.64-1.85a11.76,11.76,0,0,0,5.61-1.08c.57-.25,1.15-.54,1.61-.34,1.62.69,3.2,0,4.76-.11s3.3-.77,5.05-.66,3.69.44,5.3-.07c2.89-.93,5.76-.55,8.63-.57,1.44,0,3-.64,4.36.62.72.67,1.33-1.53,2.4-.36.64.7,1.36.5,2.19.07s1.63.87,2.35.29,1.88-1,2.14-.62c.65,1.08,1.65-.4,2.11.53a.39.39,0,0,0,.3.12c3.15-.37,6.14,1,9.32.8a15.24,15.24,0,0,1,5.64.91,31.15,31.15,0,0,0,5.22,1.05c3,.46,5.73,1.81,8.71,2.24.81.11,1,2.09,2.3.76.65,1,1.73.42,2.55.7a7.51,7.51,0,0,1,1.79,1.39c1.67-.16,3.22.61,4.93,1.29a82.82,82.82,0,0,1,9.54,4.45c4.21,2.33,8.58,4.49,11.95,8.06.69.74,1.55.13,2.22.71,3.93,3.36,8.19,6.31,11.52,10.4,1.39,1.7,3.46,3,4.91,4.71,2.9,3.5,6.25,6.58,8.67,10.55,1.44,2.36,3.3,4.56,4.83,6.93a72.94,72.94,0,0,1,8.1,15.51c1.45,4.16,3,8.28,4.09,12.56.38,1.48.24,3,.72,4.32a9.69,9.69,0,0,1,.59,4c-.05,1.07,1,1.72.8,2.92a3.12,3.12,0,0,0,.55,3c.41.44.1,1.58.1,2.41a16.8,16.8,0,0,1-.06,3.55c-.19.93,1.31,1.72.11,2.61,1.12.91.56,2.17.65,3.28s0,2.14,0,3.21v3.56a10.21,10.21,0,0,0,.06,3.18c.65,1.84.16,3.71.55,5.57a25.25,25.25,0,0,1,.08,6.39c-.08,1.86,1,3.48.79,5.41a13.76,13.76,0,0,0,.06,5.65c.61,2,0,4,.76,5.72.9,2,0,4,.59,5.82,1.21,4,1.1,8.3,2.2,12.28,1.39,5,2.15,10.17,3.79,15.14,1.07,3.23,2.25,6.45,3.31,9.68a60.16,60.16,0,0,0,4.37,9.22,79.4,79.4,0,0,0,7,10.65c2.59,3.41,5.66,6.38,8.3,9.73,1.2,1.53,2.65,2.8,3.82,4.38s3.17,2.91,4.43,4.61c3.15,4.24,7.41,7.56,10.1,12.18,4.84,4.58,7.88,10.55,12,15.7,2.06,2.56,3.4,5.69,5.1,8.54,2.84,4.73,5.17,9.71,7.56,14.67a114.37,114.37,0,0,1,5.53,14.09c1.14,3.45,2.1,7,3.3,10.38.48,1.4-.2,3,1,4.22-.12,3.34,1.67,6.39,1.43,9.74,1.09,1.94.78,4.07.66,6.11-.1,1.56,1.12,2.73.82,4.35a8.77,8.77,0,0,0,0,4.58c1,2.42.54,4.82.58,7.22q.15,8.37,0,16.74c0,1.83.58,3.73-.4,5.51-.86,1.57.34,3.45-.73,5-.4.58.71,1,.49,1.74-.42,1.54.47,3.18-.56,4.77-.8,1.22.42,2.95-.77,4.31-.72.82,1.69,2-.12,2.91.3,2-.39,3.85-.72,5.75-.27,1.58.46,3.2-.49,4.79-.81,1.35.45,3.26-.93,4.59.52,2.36-.83,4.49-.78,6.83a20.27,20.27,0,0,1-.88,5.31c-.68,2.69-1.28,5.41-1.82,8.13a27.31,27.31,0,0,1-.79,2.89c-.16.53-.74.78-.74,1.49,0,4.44-1.6,8.56-2.92,12.67a45.1,45.1,0,0,1-2.64,7.46c-.34.64-.31,1.83-.85,2.46-1.59,1.85-2,4.2-2.72,6.36a12.53,12.53,0,0,1-1.58,3.27c-.14.19-.48.34-.48.51,0,3.17-2.12,5.54-3.33,8.24s-2.81,5-3.91,7.64c-2.21,5.3-5.49,10-7.9,15.24a43.44,43.44,0,0,1-2.66,4.43c-.39,1.18.68,1.27.52,2.2s-1,1.14-2.09,1.41c.49,2.6-1.49,4.3-2.64,6.25-2.74,4.6-5.69,9.09-8.8,13.45a87.45,87.45,0,0,1-6.43,8.41c-7.64,8.37-15.6,16.43-23.77,24.26-3.11,3-6.23,6-9.5,8.83-2.78,2.4-5.56,4.83-8.47,7-6.81,5.15-13.63,10.3-20.83,14.94-5.5,3.54-11.19,6.74-16.88,10q-5.46,3.09-11.16,5.69-9.12,4.19-18.41,8c-5.84,2.36-12.07,3.42-17.76,6.09-3.87,0-7.25,2.42-11.14,2.31-1.65,1.13-3.68.94-5.49,1.28s-3.7,1.22-5.73.91c-.93-.14-1.77.88-2.91.69a3.39,3.39,0,0,0-2.83.5c-.86-1.12-1.41.58-2.35.25a4.86,4.86,0,0,0-3.15,0c-2.26.91-4.74.06-6.8.79-2.24.79-4.45,0-6.49.65-2.51.77-4.85-.61-7.27-.11-.21,0-.52-.41-.79-.64-.52.22-.26.79-.59,1.31a10.2,10.2,0,0,0-2.43-1.3,16.85,16.85,0,0,0-3.36-.05l-1.84,2.24c-1.42-.34-2.53.15-3.72-.47-.53-.27-1.81.25-2.75.42-1.22.22-2.3-1.17-3.17-.58-1.16.8-2.26.5-3.36.5q-15.48.06-31,0c-1.11,0-2.38.52-3.29-.63-1.13,1.75-2.15-.35-3.31-.12a7.51,7.51,0,0,1-3.29-.51c-1.89-.49-4-.09-6-.15-1.35,0-2.66.2-4-.62-1.09-.65-2.61-.17-4-.53a20.28,20.28,0,0,0-5.31-1,6.75,6.75,0,0,1-3.66-.64c-.91-.5-2.34.42-3.22-.78-2.42.14-4.6-.88-6.89-1.38a141.72,141.72,0,0,1-16.21-4.69c-4.46-1.56-8.95-3-13.39-4.63-1.44-.52-2.88-1.1-4.27-1.72A149.58,149.58,0,0,1,176,591.7c-4.2-2.46-8.52-4.73-12.63-7.38-2.19-1.41-4.7-2.4-7-3.73-5.39-3.13-10.68-6.4-15.81-10-4.49-3.11-9.07-6.1-12.93-10-1-1-2.32-1.79-3.4-2.76-1.23-1.12-2.22-2.56-3.57-3.46-1.76-1.18-3.08-2.81-4.74-4-1.29-.94-1.14-3-3.17-3.38-1.47-.3-1.51-2.71-3.24-3.13-.59-2.2-3-2.67-4.11-4.64s-3.06-3.25-4.66-4.85a50.11,50.11,0,0,1-4.74-4.82c-2.5-3.29-5.75-5.87-8.27-9s-5.5-5.56-7.26-9.08c-.42-.83-1.16-.48-1.63-1s-.42-1.29-1-1.77a54.19,54.19,0,0,1-5.74-6.47c-2.56-3.18-5-6.45-7.64-9.61a178.23,178.23,0,0,1-11-15.43c-2.26-3.44-4.4-7-6.57-10.45-2.53-4-5.08-8.09-7.52-12.2-1.85-3.13-3.49-6.39-5.31-9.54-1.44-2.5-3-4.94-4.52-7.38-2.13-3.38-4.15-6.83-6.25-10.21a153.34,153.34,0,0,1-8-14.86A66.29,66.29,0,0,1,12,404.59a38.4,38.4,0,0,0-2.11-5.15c-1.68-3.32-2.37-6.87-3.49-10.32-.4-1.21-.46-2.44-.76-3.61s-.45-2.19-.68-3.28c-.66-3.29-.72-6.69-2-9.86a1.53,1.53,0,0,1-.11-.66c.43-3.75-1-7.35-.76-11.11.26-3.35-1.15-6.63-.67-10-1.21-1.92-.31-4.12-.76-6.1-1.2-5.34-.51-10.73-.64-16.1s0-10.68,0-16c0-3.79.94-7.45,1.53-11.15a10,10,0,0,0,.6-2.57,5.26,5.26,0,0,1,1.42-4"/></g></svg>