<svg xmlns="http://www.w3.org/2000/svg" viewBox="0 0 310.83 167.5"><defs><style>.cls-1{fill:#fff;}</style></defs><title>swirl</title><g id="Layer_2" data-name="Layer 2"><g id="_76" data-name="76"><path id="Fill-1" class="cls-1" d="M119,144.59l.18.66,3.67-1.1-.12-.48-3.73.92M257.21,4l0-.53-19.86-1,0,.64L257.21,4M149,114.06c28.43-4.55,56.4-10.88,83.16-21.86A589.83,589.83,0,0,1,149,114.06m-9.24-9.56c.05.19.09.38.14.57,6.51-1.21,13-2.35,19.54-3.65,17.16-3.44,34.27-7.1,51.07-12,6.81-2,13.55-4.21,20.29-6.41,3.42-1.11,6.77-2.43,10.16-3.65,1.3-.47,2.61-.92,3.91-1.38-.07-.23-.15-.47-.23-.7C210.53,89.55,175.41,98,139.78,104.5m91.54-.44c-.13-.2-.26-.4-.38-.6-2.61,1.41-5.15,2.93-7.83,4.19-6.17,2.92-12.35,5.84-18.63,8.5-7.47,3.17-15,6.11-22.6,9-1.18.45-2.52,1.79-4,.31a5.89,5.89,0,0,0-.76.54,10.12,10.12,0,0,1-2.51,1.76q-21.34,6.72-42.73,13.31c-2.08.64-4.19,1.22-6.28,1.83a8,8,0,0,0,3.43-.35q22.75-6.88,45.48-13.81c1.5-.46,2.17-.35,2,1.43a5.19,5.19,0,0,0,.53,1.86,18.85,18.85,0,0,0,1-1.68c.6-1.34.31-3,2.34-3.69q11.52-4.19,22.86-8.85c5-2,9.86-4.45,14.77-6.73,3.19-1.48,6.39-2.95,9.53-4.54a41.06,41.06,0,0,0,3.82-2.5M31,90.54c.08.16.17.31.26.47,2.9-1.86,5.75-3.8,8.69-5.58A200.35,200.35,0,0,1,72.54,69.29c10-3.78,20.06-7.65,30.35-10.51,12.94-3.59,26.11-6.37,39.24-9.16,5.52-1.17,11.21-1.51,16.83-2.19,3.28-.4,6.58-.73,9.87-1.08s6.63-.68,9.94-1a33.68,33.68,0,0,0-7.62-.25q-11.42,1.35-22.79,3c-19.85,2.92-39.43,7.07-58.35,13.8-11.21,4-22.24,8.53-33.19,13.19A107.86,107.86,0,0,0,31,90.54M198.45,2c-30-.43-77.49,6.46-132,34.23a216.2,216.2,0,0,0-39,25.24C78.92,24.83,136,4.37,198.45,2M277.94,12.7c-.35.33-.74,1-1,1-2.92-.38-5.82-.88-8.73-1.31a10.35,10.35,0,0,0-1.67,0,6.44,6.44,0,0,0,1.11,1.21c2.58,1.7,5.26,3.24,7.77,5A35.12,35.12,0,0,1,290.53,43c.4,2.8.06,5.71.06,9.13,6.15-4.56,11.16-9.31,14-15.79,1.41-3.16,1.67-6.71-.63-9.74-4.64-6.12-11.65-8.32-18.42-10.88-2.59-1-5.77-.52-7.64-3.05M156.05,53.62c.39-.48.78-.95,1.27-1.53a4.13,4.13,0,0,0-1.38-.16c-.83.23-1.62.6-2.42.91l2.61.71c-.54.41-1,1.09-1.63,1.16-1.11.13-2.32-.33-3.39-.1-1.54.32-3,1.24-4.51,1.56-11.9,2.48-23.86,4.72-35.72,7.38a105.76,105.76,0,0,0-13.71,4.53C89.51,71,81.41,72.55,74,76.26c-.62.31-1.42.23-2.06.52-2.4,1.07-4.8,2.17-7.14,3.36-2.16,1.11-4.21,2.46-6.4,3.49s-4.38,1.67-6.53,2.6c-5.79,2.5-10.46,6.69-15.35,10.49a58.8,58.8,0,0,0-7.27,7.36,28,28,0,0,0-3.05,4.57c-1,1.7-.14,2.6,1.56,2.79,5,.58,10.05,1.54,15.08,1.54,23.6,0,46.91-3.33,70.18-6.82,13-2,26-4.36,38.89-6.8,21.4-4,42.63-8.8,63.55-14.91A427.72,427.72,0,0,0,259,69.52c1.8-.74,1.62-1.42.55-2.6a31.09,31.09,0,0,0-12.91-8.09c-6.08-2.17-12.58-3.15-18.89-4.71-.45-.11-.74-.77-1.16-1.1A18.65,18.65,0,0,0,224.94,52l-.65.78,1.75.32-.41.55a11.54,11.54,0,0,0-3.36-.54c-3.37.48-6.6-.6-9.94-.61-5.68,0-11.36-.52-17-.83-1.49-.08-3-.31-4.46-.32s-2.67.19-4,.3c-1,.08-2,.16-3,.27s-2.11.64-2.73.26c-1.83-1.14-3.51-.43-5.2,0-1.47.39-2.82,1-3.71-.91-.14-.31-.81-.41-1.25-.54-.06,0-.37.43-.32.53.89,1.72-.62.93-1.15,1.07a19.11,19.11,0,0,1-2.16.38c-1.23.19-2.47.37-3.71.53-1.5.2-3.24,0-4.45.66s-2.12.25-3.11-.28m-95.32.88c-2.52,1.13-5.14,2.1-7.56,3.44A137,137,0,0,0,22.93,80.31c-3.13,3.07-5.51,6.9-8.28,10.34a24.23,24.23,0,0,0-5.51,14.29,7.1,7.1,0,0,0,1.23,4.64,16.41,16.41,0,0,0,8.73,4.84c-2.41-4.4-3.43-8.78-.91-13a39.56,39.56,0,0,1,6.39-8.17C32.1,86,41.13,80.84,50.32,76.05a275.44,275.44,0,0,1,45-18.17A314.9,314.9,0,0,1,156.8,44.83c7.24-.78,14.51-1.36,21.78-1.85a204.16,204.16,0,0,1,44.19,1.89,105.61,105.61,0,0,1,23.39,5.85c7.71,3.06,14.71,6.7,18.48,14.6.46,1,1,1.29,2,.74,2.5-1.3,5.1-2.44,7.57-3.8,2-1.11,4.33-2.06,5.77-3.73a22,22,0,0,0,5.52-13.2c.23-3.94-.41-7.89-2.69-11-2.72-3.72-5.56-7.68-9.91-9.67-2.1-1-2.93-3.82-5.72-3.54-.23,0-.52-.71-.8-1.07-.89-1.11-2.78-.7-3.39-2.24a1.46,1.46,0,0,1-.38.18c-.6.09-1.27.39-1.78.21-6.08-2.11-12.1-4.39-18.45-5.67a66.5,66.5,0,0,0-17.59-1.48c-3.72.23-7.5,1.48-11.32.1-.74-.27-1.87.85-2.86,1-6.54.81-13.08,1.69-19.65,2.23-6.39.52-12.53,3-19.12,2.2a5.15,5.15,0,0,0-5,1.6c-.64.8-2.47-.26-4,.51s-3.79.54-5.72.74c-.06,0-.12.08-.19.1-4.24,1-8.34,2.57-12.5,3.76-15.74,4.49-31.41,9.12-46.7,15-3.45,1.33-6.82,2.88-10.34,4-4.7,1.43-9.53,2.36-13.66,5.34-1.55,1.12-3.62,1.49-5.41,2.28a13.47,13.47,0,0,0-1.94,1.27L60.73,54.5m140.58,56.73a6.87,6.87,0,0,1-1.75,1.07c-10.83,2.6-21.59,5.53-32.52,7.64-13.91,2.69-27.95,4.76-41.95,7-3.55.56-7.18.61-10.75,1-2.26.26-4.48.91-6.73,1.14-5.89.61-11.79,1.12-17.69,1.59-1,.08-2.1-.39-3.14-.36-.64,0-1.25.72-1.89.74-5.54.17-11.08.39-16.62.33-7.54-.08-15.1,0-22.59-.69-11.42-1-22.76-2.82-32.5-9.61-6.38-4.44-11.92-9.54-13-18a24.13,24.13,0,0,1,4-16.53c2.43-3.76,5.38-7.17,8-10.8.72-1,1-2.31,1.72-3.36a25.39,25.39,0,0,1,3.43-4.68A158.13,158.13,0,0,1,42.86,48.18C49.58,44,56.4,39.82,63.42,36.12c22.45-11.83,45.77-21.5,70.47-27.6C150.4,4.45,167.1,1.35,184.07.33,194.31-.29,204.62.15,214.9.2c8.32,0,16.64.2,25,.29,15.26.18,30.33,1.81,45,6.29C292.17,9,299,12.23,304.49,17.88c6.29,6.49,8.29,18,4.24,26.14A43,43,0,0,1,294.6,60.25c-3.18,2.21-6.49,4.29-9.45,6.77-2.53,2.12-4.48,4.91-7,7.08-3.9,3.39-8.09,6.42-12,9.77-1.26,1.07-2,2.72-3.13,4-3.07,3.42-5.87,7.18-9.39,10-5.41,4.36-11.29,8.17-17.08,12-3.09,2.07-6.42,3.79-9.64,5.66a7,7,0,0,0-5.72,2.94c-3.76,1.7-7.51,3.42-11.27,5.1-.81.36-1.67.62-2.49.92l-9.08,3.63a16.8,16.8,0,0,1-3,2,539.25,539.25,0,0,1-67.58,20.91c-14.47,3.45-28.9,7.18-43.49,10.07-12.8,2.54-25.79,4.12-38.71,6-2.06.31-4.19.16-6.28.3A8,8,0,0,1,33,165.28a2.74,2.74,0,0,0-.7-.46c-.67-.35-1.34-.67-2-1l1.83-1.34a2.65,2.65,0,0,0-.46-.38c-.64-.32-1.3-.63-2-.94.74-.45,1.46-1.24,2.23-1.29,25.87-1.77,50.76-8.55,75.73-14.83a720.74,720.74,0,0,0,86.12-27c6.47-2.52,12.86-5.25,19.19-8.11a109.79,109.79,0,0,0,13.43-7.27c-2.27.77-4.53,1.58-6.82,2.3-4.82,1.53-9.67,3-14.48,4.53a7.82,7.82,0,0,0-1.77,1.16l-2.06.54"/></g></g></svg>