<svg xmlns="http://www.w3.org/2000/svg" viewBox="0 0 246.64 222.89"><defs><style>.cls-1{fill:#fff;}</style></defs><title>xx</title><g id="Layer_2" data-name="Layer 2"><g id="_62" data-name="62"><path id="Fill-25" class="cls-1" d="M245.51,116c-.08.24-.3.86-.58,1.64l.88.42c.19.69,1.23,1.41.6,2.34s.94,1.72-.22,2.4c.2,1.75-1,3-1.85,4.23s-.91,2.5-2,3.46a14.9,14.9,0,0,0-2.24,3.29l-2.06.09c.15.47.26.83.43,1.39l-1,1.11.74,2.27c-.39.44-.77.87-1.18,1.35l1.15.41-1.6,1.13.5.59c-1.75.65-3.32-.92-5.25-.16-1.19.86-2.08,2.62-3.86,3.27-.68.25-.1,1.51-1.27,1.36-.42-.05-.11,1.29-1.09,1-.36,1.22-1.45,1.71-2.31,2.47a13.14,13.14,0,0,0-1.93,2.3c-.48.69-1,1.36-1.5,2a17.32,17.32,0,0,0-1.37,1.82c-.32.55-.29,1.5-.73,1.76a1.9,1.9,0,0,0-1.1,1.48l-1.28-.76c-1.09.54-2.19,1.05-3.28-.29v-2.78c-2.1-1.18-4.29-2.21-5.27-4.88.08-.88-.35-2.13.5-3.16-1.23-2.46-.17-4.54,1-6.58a26.16,26.16,0,0,1,5.49-6.51c-1.29-1.94-2.64-3.74-3.74-5.68a9.9,9.9,0,0,1-1.63-4.32c0-1.59-.54-3.24.4-4.85.42-.72,0-1.76.49-2.71a9,9,0,0,1,.9-1.74,5.53,5.53,0,0,0,.42-1.57c.43-.41,1.53-1,1.76-1.75.33-1.15,1.8-.71,1.78-2.06l.81.62,2-.6c.27.5.49.92.75,1.42-.52,1-1.1,2-1.76,3.2l3.18-.31.75.74c-.35.7-.71,1.4-1.18,2.32l2.28.24c-.2.93-.4,1.87-.59,2.8l-1.08,1c.24.24.34.37.36.36l1.09-.65.34.89L218.92,123l1.23.41-1.92,1.93,2.64,2.09a3.88,3.88,0,0,0,3.38-1.19c2.37-2,5-3.83,7.31-5.89s4.94-4.17,6.65-7a10.22,10.22,0,0,1,1.69-1.74h2.79l.69.87c-.3.87-.62,1.77-1,2.93l2.43-.66.73,1.27"/><path id="Fill-27" class="cls-1" d="M77.35,171.81l-2.48.76c.22-.47.36-.79.55-1.19-.61-.91-1.3-1.73-2.55-1.55l-.25-.94H70.43c-.22-.22-.41-.33-.46-.48a10,10,0,0,0-1-3c-.79-1-.4-2-.43-3A9.06,9.06,0,0,1,69,160a35.38,35.38,0,0,1,3.19-8.22,42.54,42.54,0,0,1,2.88-4.63c1-1.45,2.23-2.76,3.39-4.18-.31-.2-.66-.44-1-.65a46.34,46.34,0,0,1-9.34-7.52c-1.33-1.35-1.34-3.17-1.73-4.84a9.37,9.37,0,0,1,0-2.12c.71-1.35,2.14-1.47,3.54-2l1.49,2.63L72,128c.18.18.5.35.59.61a5.68,5.68,0,0,0,3.21,3.06c2.78,1.39,5.59,2.72,8.57,4.17a11.55,11.55,0,0,1,2.41-2.43c.94-.53,1-2,2.45-1.88-.21-.25-.36-.43-.57-.7l1.53-1.07c.2-.44.5-1.11.8-1.76l1.47-.09-.6-.77c1.13-.16,1.2-1.33,1.91-2a18,18,0,0,0,2-2.48l.63.46.43-1,.69.55A10.39,10.39,0,0,1,100,118c1.16-1.38,2.2-3,4.09-3.9.23.2.55.46.91.75-.75,1.44-1.47,2.86-3,3.61v2.12c.36-.09.73-.07.81-.21.3-.58.52-1.2.64-1.49l3.59-3c.07,1,.12,1.63.17,2.25l-1,.42c.08.11.19.33.24.32.64-.13,1.28-.3,2.06-.49l.77,1.34-.51.56c.11.77,1,1.45.32,2.33l-.58-.53c-.09.16-.26.34-.23.45a7.49,7.49,0,0,0,.49,1c-.15,1.34-1.22,2.24-2.22,3.14s-2,1.62-3.2,2.59l1.42.82c-.3.59-.49.94-.68,1.31l.54.6-1.76.29c.19.48.36.89.54,1.37h-1.76c-.33.67-.61,1.26-.89,1.81l.69.74-1.73.32c.17.45.32.86.51,1.34l-1.58.24.59,1.58-1.8-.69c-.28.54-.58,1.09-.86,1.64.1.19.14.4.26.46s.5.1.71.21c.81.46,1,1.51,1.79,2a6.21,6.21,0,0,1,1.79,2.06,3,3,0,0,1,.8,2.08c0,.29.24.59.4.95l-.61,1.05c-.72.08-1.24,1-2.55.53a29.57,29.57,0,0,0-7.13-2c-.14,0-.26-.24-.48-.47l-2.35,2.65c0,.1-.06.51-.11,1l-1.75.28,1.42,2L87.17,153l-.58.68c.31.85.06,1.37-.93,1.93-.3,1.07-.58,2.1-.82,2.95l-1,.38.58.58a13.71,13.71,0,0,0-2.32,1.84,11.92,11.92,0,0,0-1.22,2.53l.5.74-1.71,1.76.64.81-1.19,1.37v1.54c-.63.6-1.27,1.21-1.75,1.69"/><path id="Fill-29" class="cls-1" d="M142.51,182.37c1.23,1.48,1.23,1.48,2.71.66a9.21,9.21,0,0,0,.13,1.27,3.42,3.42,0,0,0,.45.73l-.47.47,1.3.61-1.73,2.47c.73,1.32-.82,1.55-1,2.26-.35,1.09-1.67,1.32-1.71,2.48,0,1.36-1.43,1.53-2,2.32s-1.46,1.13-1.58,2l.65,1.11L137,200l-1.66.78-1.67,2v.52L128.59,207l1.37.69c-.73,1-1.46,2.06-2.26,3.16l5.93,2-.59,1.17,2.65.94v1.15l1.64,1.52c0,.62.07,1.21.1,1.78l1,1-2.44,2c-.58.64-1.17.52-1.82.1a1.24,1.24,0,0,0-.7-.2c-2.74.06-5.21-1-7.7-1.89-1.84-.68-3.61-1.53-5.51-2.35-.52.51-1.33.91-1.43,2l-3.29.77-1.41-1.43.59-.65-.72-1.48-2.25.35-1.1-2.19-.35.35-2-2c.25-1.84-.92-4-.61-6.23A2.12,2.12,0,0,0,107,206c-1.57-1.47-1.63-3.59-2.37-5.39a7.18,7.18,0,0,1-.6-2.4,19.39,19.39,0,0,1,0-4c.36-2,.74-4.2,3.11-5a17.23,17.23,0,0,1,2.67-.47v4.14l2.39-1.55.43,1.24.4-.3v2.44l1.09-.56c1.13,1,1.1,2.24.94,3.54l1.17.41c-.2.57-.41,1.13-.67,1.81a2,2,0,0,0,.55-.1c.2-.17.35-.46.57-.54,2.27-.86,3.4-3.27,5.68-4.11.45-1.64,2.19-2,3.2-3.1a26.69,26.69,0,0,1,3.81-2.86c1.24-.94,1.93-2.5,3.54-3a11.45,11.45,0,0,1,4.46-4.46c-.07-1.3,1.72-1.46,1.68-2.83h2.39l.67.67c-1.14.56-1.56,1.67-2.29,2.84,1.58.33,2.49-1.6,4-.71l-1.3.61"/><path id="Fill-31" class="cls-1" d="M136.37,154.36c-.13-1.24,1.62-1.38.79-2.53l-.59.52c-.06-.06-.17-.12-.18-.19a4.19,4.19,0,0,1,.81-3.59c1-1.16,2-2.33,3-3.53a12.7,12.7,0,0,0,.8-1.38c-.48-1.25-1.14-2.55-1.71-3.84s-.6-2.88-1.27-4.25c-.35-.73.57-2,.35-2.89s-.83-1.85,0-2.78c0-2.63,1.8-4.27,3.37-6.09h4.41l.93.88L145,127.35l.55,1.17c.25,0,.72.14.89,0,.74-.72,1.59-.43,2.37-.52.29.62.53,1.14.79,1.72l-1.43,1.79,2.41.31v2.54c1.79.06,2-2.11,3.49-2.1a14.43,14.43,0,0,1,2.58-2.6c1-1,2-2,3-3s1.81-1.88,2.62-2.89,1.55-2.19,2-2.88l2.48-.88a3.87,3.87,0,0,1,.77,1.15c.08.34-.19.78-.37,1.14a2.81,2.81,0,0,0-.48,1.51l2.39-1c.45.89.94,1.83,1.68,3.27a5.12,5.12,0,0,0,0,1,8.92,8.92,0,0,0,.36,1.29l-.47.83.6.65c-1.53,2.46-2.92,5-4.6,7.39-1.41,2-1.22,2.13-2.25,2.7l.47.52-6.29,7v.88l4.94,3.15c-.25.47-.39.77-.62,1.22.63.54,1.06,1.59,2.29,1.2l.7,1.4c-.15.22-.35.49-.61.85l1.91,1.91c-.25.64-.46,1.17-.69,1.77l.56,1c-.09.2-.12.41-.24.48s-.64.21-.83.42c-1.14,1.29-1.34,1.36-2.78.87a35.2,35.2,0,0,1-5.54-1.93,74.91,74.91,0,0,1-6.66-4.53,24.29,24.29,0,0,0-3.16,2.87,9.37,9.37,0,0,1-4.27,2.54c.33-.55.46-.78.76-1.27l-3.17.59-.17-.34,1.79-1.39-.92-.93h-1.81l-.83-2.08h-2.19l-.7-1.76"/><path id="Fill-33" class="cls-1" d="M147.86,102.36,145,103c-1.16-.86-2.55-1.92-4-2.93-1.71-1.19-3.2-2.72-5.15-3.56-.45-.19-.93-.34-1.55-.56-.76-1.14-.85-3.26-3.08-3-1-.93-1.14-2.53-2.61-2.69a10.22,10.22,0,0,0-1.43-2.35,30.22,30.22,0,0,1-6.79-9.81c-.16-1.2-.16-2.8-.42-4.41-.41-2.53.94-4.7,3.14-6.1.6-.39.91-1.24,1.92-1.15a8.48,8.48,0,0,0,2.37-.54l1.09,1c-.74,1.25-2.16,2-2.26,3.73,1.66.55,2.41-1.29,4.08-1.51.2.19.56.51.91.81l-1.73,2.59c1.14-.36,1.95-.36,2.25-.76.76-1,2-1.4,2.7-2.51a9.32,9.32,0,0,1,2.87-2.54c1.57-1,2.85-2.49,4.32-3.67a60.64,60.64,0,0,1,6.61-5.11,13,13,0,0,0,2.46-2.4c.72-.76,1.87-1.09,2.09-2.21h3.57v2.29c-.1.1-.44.45-.86.86.48-.09,1-.15,1.41-.26s.93-.25,1.65-.44c-.11,1.71,0,3.22,1.21,4.33-.27.35-.41.55-.71.95l1.62.89-1.51.42a5.06,5.06,0,0,1,.42,1,5.24,5.24,0,0,1,0,1l-3.05,4.17-1.23.14.45.62c-.15.38-.33.8-.53,1.27-2.33-.11-2.35,2.29-3.79,3.23l.53.69-2.91,2.9h0l-1.33,1.33-.44-.34v1.4l-.89-.73c.09.59.15,1,.23,1.54l-2.32,3L143.5,83c-1,1.11-1.94,2.26-2.92,3.41l1.24.62-1.27,1.61c.06.21.06.41.16.52,1.61,1.81,3.53,3.43,4.79,5.45,1.41,2.29,3.19,4.64,2.36,7.75"/><path id="Fill-35" class="cls-1" d="M184.63,64.05l.42-.42c-.1-.12-.18-.26-.29-.37-.69-.62-1.56-1.16-2.11-1.77s-1.16-1.06-1.71-1.61a4.84,4.84,0,0,1-1.59-2.72,19,19,0,0,1,.23-5.14,15,15,0,0,1,4.4-7.46l8.17-8.18c-1.06-.92-1.12-2.65-2.81-3l-2.13-4.15a8.23,8.23,0,0,1-.53-4V22.31l2.66-3.4h4.42c-.71,1.21-1.32,2.24-1.91,3.26,1.63,1.18,2.23-1.38,3.67-.6.89,1.22-.77,1.8-1.3,3l2.33-.56a4,4,0,0,1-.46,3.54l1.08.42c.3.33-.33.38-.44.86l1.58,2.42c4.37-4.58,9.95-7.66,13.36-12.9h2.66c-.21.87-.39,1.64-.63,2.68l2.09-.73v2.05l.9.24a1.6,1.6,0,0,1,.19.45,7,7,0,0,0,0,.79c.53,2.75-.84,4.93-2.27,7-1.56,2.23-3.36,4.28-5.19,6.58,1.3,1.56,3.39,2.32,5.22,3.78,0,.24.09.65.15,1.12.49.6,1.27,1.19,1.5,2,.48,1.65,1.69,3.19.87,5.32-.2.09-.64.31-1.09.5s-.91.36-1.42.56c-.71-.72-2.29-.49-2.08-1.88l-4.42-1.28-.93-1.61h-2.92c-.08-.31-.13-.55-.2-.85-1.09-.83-2,.15-2.63.32L199.23,48l-.67-.51-1.06,1.5.28.35c-1.23.31-1.34,1.55-1.88,2.56l-1.13-.7c-.07.46-.14.91-.23,1.44l-.84.23c-.12,1.07-.27,2.38-1.86,2-.54.69-1.43,1.34-1.37,1.87.18,1.62-1.17,2.39-1.53,3.65a3.34,3.34,0,0,0,.34,2.65,10.25,10.25,0,0,1-3.95,1.92c-.2-.24-.41-.52-.7-.88"/><path id="Fill-37" class="cls-1" d="M29.65,34.11l-1.55.19.75.84c-.66,1.22-1.9,2-2.75,3l.42.41L24.6,40.09c-.32.83.36,1.77-.76,2.29,1,.66,1.89,1.25,2.78,1.87,2.78,1.92,5.76,3.57,8.05,6.16,1.31,1.48,2.55,2.91,2.57,5,0,.36.37.71.66,1.24l-2.49,1.57c-5.29-3.1-10.75-5.86-15.77-9.91-.36.21-1.14.38-1.29.78A10.6,10.6,0,0,1,15.51,53c-.14.14-.09.48-.13.72l-1.54.17c.12.42.22.77.41,1.4A7,7,0,0,0,12.06,59c-.23.92-1.11,1.67-1.9,2.77v5.76l-1.39.09-.34,1H6.6c-.28-.82-.57-1.67-.91-2.65l-1.62.71c-.13-.39-.22-.69-.32-1-.15-.06-.32-.2-.45-.17a1.83,1.83,0,0,1-2-1.34C.71,61.66-.88,59.23.64,56.6.67,54,2.29,52,3.21,49.72c.3-.74,1.59-.61,1.24-1.89-.14-.53.82-1.36,1.29-2A19.74,19.74,0,0,1,7.06,44c.57-.67,1.27-1.22,1.85-1.89a21.63,21.63,0,0,0,1.3-1.9C7,37.75,5,34.31,2.76,31.11,2,28,.79,25,1.28,21.37L4,18.24c1.14.23,2.41-.47,3.45.71l-2,2.74.54.57c1.44.3,2-1.8,3.47-1.31l.67,1.32-1.54,1,.84.84c.75-.78,1.47-.79,2.36.28-.08.59.37,1.44-.51,2.13l1.24.6L11.3,28.7l1.31.46-1.37.36c.06.44-.05,1,.2,1.35,1,1.37,2.13,2.65,3.33,4.11.66-.59,1.17-1,1.66-1.49,2.9-2.7,5.33-5.94,8.92-7.86,0-1,1-.92,1.47-1.46S27.9,23,28.26,22.62H30c-.8,1.19-2.18,1.86-1.73,3.57L32,24c-.13.78-.22,1.39-.33,2.08l2,1L33,28.24l.77.16c0,.1.12.28.08.34A13.9,13.9,0,0,0,32,31.35c-.52,1.21-1.66,1.75-2.32,2.76"/><path id="Fill-39" class="cls-1" d="M78,61.16c2.11-2.59,3.89-4.75,5.64-6.93A49.37,49.37,0,0,0,88,47.64c-.16-.2-.32-.4-.6-.73l1.37-1.55h1.74c.66.65,1.18,1.58,1.93,1.82.91.29,1,1,1.41,1.56C95.15,50.63,96,52.55,95.05,55q-.9,2.27-1.84,4.53c-.19.45-.33.93-.57,1.62L91.31,62.5v1.67l-2.88,5.21c1.32.89,2.54,1.76,3.79,2.56A14.73,14.73,0,0,1,98,78.25a17.46,17.46,0,0,1,.66,2.16l-.58,1.29-1.59.74c-1.25-.43-2.35-.75-3.4-1.19S91,80.26,90,79.76c-.18-1.54-1.93-.92-2.65-2-.59-.86-1.9-1.22-3-1.89A84.82,84.82,0,0,0,75,87.34c-.21.31-.14.82-.21,1.23a2.78,2.78,0,0,1-3.62-.06v-.84L66.5,84.89c-.77-.91-.38-2.32-.88-3.42s-.08-2.4-.3-3.3a33.31,33.31,0,0,1,6.8-10.28v-1.8a14.66,14.66,0,0,1-3.86-4.89,7.53,7.53,0,0,1-.59-2.14,17,17,0,0,1-.79-4.44,6.53,6.53,0,0,1,4.62-6.18c1.79-.68,3.54-.34,5.47-.53-1,2.15-3.53,2-5,3.77,2.5-.11,4-2.47,6.59-2-.1.6-.2,1.21-.3,1.84l1.82.65v3.36c-.68,1.19-1.43,2.38-2,3.63-.2.41,0,1,0,2"/><path id="Fill-41" class="cls-1" d="M122.81,28.17c-1,1.24-1.9,2.38-2.9,3.64v3.4L117,36.36A8.58,8.58,0,0,1,115,32.15l-1.66.61a13.42,13.42,0,0,1-1.54-2.25c-1.05-2.42-1-5-.85-7.45l1.32-3c-.73-.11-1.38,0-1.65-.28-1.71-1.73-3.4-3.49-5-5.35a9.55,9.55,0,0,1-2.07-3.36,37.53,37.53,0,0,1-.74-5.71A19.08,19.08,0,0,1,105.29,2,18.12,18.12,0,0,1,109,0l1,1.08-2.78,2.68.65.65c1.18-.86,2.36-2,4.29-1.25-.48.66-.85,1.17-1.51,2.06l2.07-.8,1.08,1.64-2,2,1.09.22c-.61,1-.27,2.42-1.81,2.93a20,20,0,0,0,5,4.09c5.84-4.85,11.55-9.59,17.35-14.39H136l-1.16,2.34c.77.59,1.37-.07,2-.37a7,7,0,0,1,2,6.68l-2.51,3.22.53.49-1.38.18.53.57h-1c-1.81,3.42-4.88,5.75-7.13,8.86,3.08,1.72,6.53,3,9.79,4.94.1.49.21,1,.34,1.7l1-1.05c1.31.18,1.28,1.69,2.39,2.24s1.52,1.77,2.27,2.71v3.14l-.85.86c-2.73-.29-5-1.85-7.47-3.1l-.32.28c-1.74-.43-2.77-2.29-4.78-2-.93-1.2-2.47-1.29-3.67-2s-2.38-1.49-3.84-2.41"/><path id="Fill-43" class="cls-1" d="M200,70.51l1.61.91c-.15.86-.29,1.73-.47,2.8.44.77.82,2,2.16,2.42.61-.84,1-1.8,2.14-2.27.81-.34,1.29-1.5,1.92-2.29a16.2,16.2,0,0,0,2.18-2.53c.45-.9,1.43-1.51,2-2.35a30.65,30.65,0,0,0,1.67-2.76h3c.16.84.42,1.67-.57,2.53l2.12.1c.26,1.23.51,2.35.75,3.45l-1.1.42a4,4,0,0,0,.12.72c.74,1.82.62,2.45-.8,3.85a2.09,2.09,0,0,0-.6,2.07c.38.9-.76.56-.22,1.38l-1.06-.87v1.48l-1.62.31v1.45L211.69,83l2.48,2.43v2L216,89.16l-.53.92,1.06,2.16c-.51,1.06-1.08,2.24-1.61,3.36h-2.21l-7.56-4.32L204,93l-1.43-.69v2.46l-2.42-.9L201,94.9l-1.81,1.7c-.16-1-.27-1.6-.38-2.28l1.06-.37c0-.2.08-.44.14-.73l-.95-.33c.11-.47.23-.94.42-1.74l-.79.72-3.32-.62L194.67,90c.2-.77.42-1.65.65-2.55l1.84.3.08-.29-2-1,1.08-2.23c-1.75-3-3.65-5.75-4.72-9-.64-2.21.12-4.4.44-6.58.24-1.7,1.65-2.9,3.18-3.76.22-.12.43-.26.78-.48h2.63l1.06,1.06-1.36,1.35v1.63l1.78-.46,1.07,1L200,70.51"/><path id="Fill-45" class="cls-1" d="M40.61,97.73l.9.9-4.85,4.15c0,.09.07.18.11.28a2.85,2.85,0,0,0,1-.32c.47-.39.84-.9,1.48-1l3.36-1.9c1,.78.26,1.39-.15,2.34l1.47-.56.69.69v3.19l-1,.93c0,.12.06.29.15.36.6.45,1.2.91,1.84,1.31s1.64.56,1.66,1.66c0,.13.22.27.36.37a10.32,10.32,0,0,1,1.63,1.15,11.18,11.18,0,0,1,1.14,1.89V115c-.43.44-.87.88-1.24,1.24l-9.94-3.55L37,113.92l-.1-.16c-.68.69-1.37,1.38-2.25,2.25,0,.21,0,.62-.07,1.14-1.39,1.34-2.85,2.74-4,3.88-.59,1.83-.29,3.7-2.73,4.09-.5-.81-2.31-.94-1.9-2.82l-1.79-.51-.64.42-2.14-2.27c-.19-1.65-.44-3.76-.7-6l6.67-7.21a27.31,27.31,0,0,1-2.62-1.68,26.8,26.8,0,0,1-2.29-2.24c.21-.69.43-1.39.66-2.15l-1.12-.38V98.5l.55-.56,2.54-.5,8.26,4.63c2.8-1.06,4.61-3.51,7.34-4.34"/></g></g></svg>